<?xml version="1.0" encoding="UTF-8" standalone="no"?>
<!-- Generator: Adobe Illustrator 19.0.0, SVG Export Plug-In . SVG Version: 6.00 Build 0)  -->

<svg
   xmlns:dc="http://purl.org/dc/elements/1.1/"
   xmlns:cc="http://creativecommons.org/ns#"
   xmlns:rdf="http://www.w3.org/1999/02/22-rdf-syntax-ns#"
   xmlns:svg="http://www.w3.org/2000/svg"
   xmlns="http://www.w3.org/2000/svg"
   xmlns:xlink="http://www.w3.org/1999/xlink"
   xmlns:sodipodi="http://sodipodi.sourceforge.net/DTD/sodipodi-0.dtd"
   xmlns:inkscape="http://www.inkscape.org/namespaces/inkscape"
   version="1.1"
   id="Capa_1"
   x="0px"
   y="0px"
   viewBox="0 0 499.70903 458.79076"
   xml:space="preserve"
   sodipodi:docname="alt_warning.svg"
   inkscape:version="0.92.4 (5da689c313, 2019-01-14)"
   width="499.70905"
   height="458.79077"><metadata
   id="metadata1333"><rdf:RDF><cc:Work
       rdf:about=""><dc:format>image/svg+xml</dc:format><dc:type
         rdf:resource="http://purl.org/dc/dcmitype/StillImage" /><dc:title></dc:title></cc:Work></rdf:RDF></metadata><defs
   id="defs1331"><linearGradient
     id="linearGradient6162"
     inkscape:collect="always"><stop
       id="stop6158"
       offset="0"
       style="stop-color:#f4e806;stop-opacity:0.26499999" /><stop
       id="stop6160"
       offset="1"
       style="stop-color:#f0951a;stop-opacity:0.47999999" /></linearGradient><radialGradient
     inkscape:collect="always"
     xlink:href="#linearGradient6162"
     id="radialGradient6146"
     cx="250.23834"
     cy="187.95851"
     fx="250.23834"
     fy="187.95851"
     r="199.90408"
     gradientTransform="matrix(-0.30362698,1.2819075,-1.2869442,-0.30481992,563.50499,-53.086379)"
     gradientUnits="userSpaceOnUse" /></defs><sodipodi:namedview
   pagecolor="#ffffff"
   bordercolor="#666666"
   borderopacity="1"
   objecttolerance="10"
   gridtolerance="10"
   guidetolerance="10"
   inkscape:pageopacity="0"
   inkscape:pageshadow="2"
   inkscape:window-width="1391"
   inkscape:window-height="855"
   id="namedview1329"
   showgrid="false"
   inkscape:zoom="0.47386298"
   inkscape:cx="740.52697"
   inkscape:cy="187.23906"
   inkscape:window-x="57"
   inkscape:window-y="5"
   inkscape:window-maximized="0"
   inkscape:current-layer="Capa_1"
   fit-margin-top="10"
   fit-margin-right="10"
   fit-margin-bottom="10"
   fit-margin-left="10" />
<path
   style="fill:url(#radialGradient6146);fill-opacity:1.0;stroke:none;stroke-width:2.94029999;stroke-miterlimit:4;stroke-dasharray:none;stroke-opacity:0.63681593"
   d="m 249.98795,49.939329 c 16.75971,0 31.75509,8.722681 40.08594,23.326171 l 153.58199,266.00001 c 8.2328,14.30946 8.136,31.55862 -0.2929,46.1621 -8.5268,14.70151 -23.62082,23.42383 -40.47854,23.42383 H 96.308263 c -16.6617,0 -31.65547,-8.52613 -39.98632,-22.9336 -8.42886,-14.60349 -8.52848,-32.0485 -0.0996,-46.75 L 209.90201,73.167844 c 8.33085,-14.60349 23.22822,-23.228515 40.08594,-23.228515 z"
   id="path6091"
   inkscape:connector-curvature="0" /><path
   d="m 249.84865,317.7514 c -13.32936,0 -24.5025,11.17314 -24.5025,24.5025 0,13.32936 11.17314,24.5025 24.5025,24.5025 12.83931,0 24.5025,-11.17314 23.91444,-23.91444 0.58806,-14.01543 -10.48707,-25.09056 -23.91444,-25.09056 z"
   id="path1288"
   style="fill:#ffffff;fill-opacity:0.85000002;stroke:#000000;stroke-width:2.94029999;stroke-miterlimit:4;stroke-dasharray:none;stroke-opacity:0.63681593"
   inkscape:connector-curvature="0" /><path
   d="m 476.64379,404.58826 c 15.38757,-26.56071 15.48558,-58.21794 0.19602,-84.68064 L 323.35615,54.1045 C 308.1646,27.34777 280.7218,11.47015 249.94666,11.47015 c -30.77514,0 -58.21794,15.97563 -73.40949,42.53634 L 22.857485,320.10364 c -15.2895595,26.75673 -15.1915495,58.60998 0.294031,85.17069 15.289559,26.26668 42.634349,42.04629 73.21347,42.04629 H 402.94027 c 30.67713,0 58.21794,-15.97563 73.70352,-42.73236 z m -33.3234,-19.20996 c -8.52687,14.7015 -23.62041,23.42439 -40.47813,23.42439 H 96.266975 c -16.6617,0 -31.65723,-8.52687 -39.98808,-22.93434 -8.42886,-14.60349 -8.52687,-32.04927 -0.09801,-46.75077 L 209.86057,73.11844 c 8.33085,-14.60349 23.22837,-23.22837 40.08609,-23.22837 16.75971,0 31.75524,8.72289 40.08609,23.32638 l 153.58167,265.99914 c 8.23284,14.30946 8.13483,31.55922 -0.29403,46.16271 z"
   id="path1290"
   style="fill:#f0f0f0;fill-opacity:0.49315072;stroke:#000000;stroke-width:2.94;stroke-miterlimit:4;stroke-dasharray:none;stroke-opacity:0.63681593"
   inkscape:connector-curvature="0" /><path
   d="m 243.77203,145.74385 c -11.66319,3.33234 -18.91593,13.91742 -18.91593,26.75673 0.58806,7.74279 1.07811,15.58359 1.66617,23.32638 1.66617,29.50101 3.33234,58.41396 4.99851,87.91497 0.58806,9.99702 8.33085,17.24976 18.32787,17.24976 9.99702,0 17.83782,-7.74279 18.32787,-17.83782 0,-6.07662 0,-11.66319 0.58806,-17.83782 1.07811,-18.91593 2.25423,-37.83186 3.33234,-56.74779 0.58806,-12.25125 1.66617,-24.5025 2.25423,-36.75375 0,-4.41045 -0.58806,-8.33085 -2.25423,-12.25125 -4.99851,-10.97712 -16.6617,-16.56369 -28.32489,-13.81941 z"
   id="path1292"
   style="fill:#ffffff;fill-opacity:0.85000002;stroke:#000000;stroke-width:2.94029999;stroke-miterlimit:4;stroke-dasharray:none;stroke-opacity:0.63681593"
   inkscape:connector-curvature="0" />
<g
   id="g1298"
   transform="translate(6.6363127,-15.836615)">
</g>
<g
   id="g1300"
   transform="translate(6.6363127,-15.836615)">
</g>
<g
   id="g1302"
   transform="translate(6.6363127,-15.836615)">
</g>
<g
   id="g1304"
   transform="translate(6.6363127,-15.836615)">
</g>
<g
   id="g1306"
   transform="translate(6.6363127,-15.836615)">
</g>
<g
   id="g1308"
   transform="translate(6.6363127,-15.836615)">
</g>
<g
   id="g1310"
   transform="translate(6.6363127,-15.836615)">
</g>
<g
   id="g1312"
   transform="translate(6.6363127,-15.836615)">
</g>
<g
   id="g1314"
   transform="translate(6.6363127,-15.836615)">
</g>
<g
   id="g1316"
   transform="translate(6.6363127,-15.836615)">
</g>
<g
   id="g1318"
   transform="translate(6.6363127,-15.836615)">
</g>
<g
   id="g1320"
   transform="translate(6.6363127,-15.836615)">
</g>
<g
   id="g1322"
   transform="translate(6.6363127,-15.836615)">
</g>
<g
   id="g1324"
   transform="translate(6.6363127,-15.836615)">
</g>
<g
   id="g1326"
   transform="translate(6.6363127,-15.836615)">
</g>
</svg>