<?xml version="1.0" encoding="UTF-8" standalone="no"?>
<svg
   xmlns:dc="http://purl.org/dc/elements/1.1/"
   xmlns:cc="http://creativecommons.org/ns#"
   xmlns:rdf="http://www.w3.org/1999/02/22-rdf-syntax-ns#"
   xmlns:svg="http://www.w3.org/2000/svg"
   xmlns="http://www.w3.org/2000/svg"
   xmlns:sodipodi="http://sodipodi.sourceforge.net/DTD/sodipodi-0.dtd"
   xmlns:inkscape="http://www.inkscape.org/namespaces/inkscape"
   sodipodi:docname="back-arrow.svg"
   inkscape:version="1.0.1 (3bc2e813f5, 2020-09-07)"
   id="svg8"
   version="1.1"
   viewBox="0 0 7.7990517 13.619838"
   height="13.619838mm"
   width="7.7990518mm">
  <defs
     id="defs2" />
  <sodipodi:namedview
     fit-margin-left="0.5"
     fit-margin-bottom="0.5"
     fit-margin-right="0.5"
     fit-margin-top="0.5"
     inkscape:lockguides="true"
     inkscape:window-maximized="1"
     inkscape:window-y="0"
     inkscape:window-x="0"
     inkscape:window-height="1139"
     inkscape:window-width="1920"
     showgrid="true"
     inkscape:document-rotation="0"
     inkscape:current-layer="layer1"
     inkscape:document-units="mm"
     inkscape:cy="27.120333"
     inkscape:cx="33.218679"
     inkscape:zoom="16"
     inkscape:pageshadow="2"
     inkscape:pageopacity="0.0"
     borderopacity="1.0"
     bordercolor="#666666"
     pagecolor="#ffffff"
     id="base">
    <inkscape:grid
       originy="-115.07899"
       originx="-161.12049"
       id="grid837"
       type="xygrid" />
  </sodipodi:namedview>
  <metadata
     id="metadata5">
    <rdf:RDF>
      <cc:Work
         rdf:about="">
        <dc:format>image/svg+xml</dc:format>
        <dc:type
           rdf:resource="http://purl.org/dc/dcmitype/StillImage" />
        <dc:title />
      </cc:Work>
    </rdf:RDF>
  </metadata>
  <g
     transform="translate(-161.1205,-115.07899)"
     id="layer1"
     inkscape:groupmode="layer"
     inkscape:label="Layer 1">
    <path
       style="color:#000000;font-style:normal;font-variant:normal;font-weight:normal;font-stretch:normal;font-size:medium;line-height:normal;font-family:sans-serif;font-variant-ligatures:normal;font-variant-position:normal;font-variant-caps:normal;font-variant-numeric:normal;font-variant-alternates:normal;font-variant-east-asian:normal;font-feature-settings:normal;font-variation-settings:normal;text-indent:0;text-align:start;text-decoration:none;text-decoration-line:none;text-decoration-style:solid;text-decoration-color:#000000;letter-spacing:normal;word-spacing:normal;text-transform:none;writing-mode:lr-tb;direction:ltr;text-orientation:mixed;dominant-baseline:auto;baseline-shift:baseline;text-anchor:start;white-space:normal;shape-padding:0;shape-margin:0;inline-size:0;clip-rule:nonzero;display:inline;overflow:visible;visibility:visible;isolation:auto;mix-blend-mode:normal;color-interpolation:sRGB;color-interpolation-filters:linearRGB;solid-color:#000000;solid-opacity:1;vector-effect:none;fill:#bfbf18;fill-opacity:1;fill-rule:nonzero;stroke:none;stroke-width:0.582083;stroke-linecap:round;stroke-linejoin:round;stroke-miterlimit:4;stroke-dasharray:none;stroke-dashoffset:0;stroke-opacity:1;paint-order:normal;color-rendering:auto;image-rendering:auto;shape-rendering:auto;text-rendering:auto;enable-background:accumulate;stop-color:#000000"
       d="m 167.90782,115.57946 c -0.1224,0.005 -0.23902,0.055 -0.32617,0.14258 l -5.81836,5.82031 c -0.1904,0.18893 -0.19037,0.50638 0,0.69532 l 5.81836,5.8164 c 0.14521,0.14785 0.36711,0.17885 0.53515,0.10938 0.16804,-0.0695 0.30429,-0.24786 0.30274,-0.45508 v -1.32031 c 0,-6.7e-4 0,-10e-4 0,-0.002 -3.5e-4,-0.13006 -0.0518,-0.25404 -0.14453,-0.3457 l -4.1504,-4.15039 4.1504,-4.15039 v -0.002 c 0.092,-0.0915 0.14428,-0.21601 0.14453,-0.34571 v -1.32422 c 0,-6.7e-4 0,-0.001 0,-0.002 -9.6e-4,-0.2501 -0.20402,-0.45128 -0.45118,-0.47461 l 0.084,0.0176 c -0.0295,-0.0143 -0.0612,-0.0235 -0.0937,-0.0273 -0.001,-6e-5 -9e-4,-0.002 -0.002,-0.002 -0.0123,-6.4e-4 -0.0238,-2.6e-4 -0.0352,0 -0.004,9e-5 -0.008,-1.7e-4 -0.0117,0 z"
       id="path2831"
       sodipodi:nodetypes="ccccccccccccccccccccscc" />
  </g>
</svg>
