<?xml version="1.0" encoding="UTF-8" standalone="no"?>
<svg
   xmlns:dc="http://purl.org/dc/elements/1.1/"
   xmlns:cc="http://creativecommons.org/ns#"
   xmlns:rdf="http://www.w3.org/1999/02/22-rdf-syntax-ns#"
   xmlns:svg="http://www.w3.org/2000/svg"
   xmlns="http://www.w3.org/2000/svg"
   xmlns:sodipodi="http://sodipodi.sourceforge.net/DTD/sodipodi-0.dtd"
   xmlns:inkscape="http://www.inkscape.org/namespaces/inkscape"
   version="1.1"
   viewBox="0 -256 1792 1792"
   id="svg1173"
   sodipodi:docname="export_icon.svg"
   inkscape:version="1.0.2 (e86c8708, 2021-01-15)">
  <metadata
     id="metadata1179">
    <rdf:RDF>
      <cc:Work
         rdf:about="">
        <dc:format>image/svg+xml</dc:format>
        <dc:type
           rdf:resource="http://purl.org/dc/dcmitype/StillImage" />
        <dc:title></dc:title>
      </cc:Work>
    </rdf:RDF>
  </metadata>
  <defs
     id="defs1177" />
  <sodipodi:namedview
     pagecolor="#ffffff"
     bordercolor="#666666"
     borderopacity="1"
     objecttolerance="10"
     gridtolerance="10"
     guidetolerance="10"
     inkscape:pageopacity="0"
     inkscape:pageshadow="2"
     inkscape:window-width="1393"
     inkscape:window-height="847"
     id="namedview1175"
     showgrid="false"
     inkscape:zoom="0.26763521"
     inkscape:cx="542.90745"
     inkscape:cy="972.5968"
     inkscape:window-x="47"
     inkscape:window-y="25"
     inkscape:window-maximized="0"
     inkscape:current-layer="svg1173"
     inkscape:document-rotation="0" />
  <g
     id="g215"
     transform="matrix(2.7879397,0,0,2.7879397,182.28744,-151.07443)"
     style="fill:#bfbf18;fill-opacity:1;stroke:#bfbf18;stroke-width:7.1737563;stroke-miterlimit:4;stroke-dasharray:none;stroke-opacity:1">
    <g
       id="g213"
       style="fill:#bfbf18;fill-opacity:1;stroke:#bfbf18;stroke-width:7.1737563;stroke-miterlimit:4;stroke-dasharray:none;stroke-opacity:1">
      <path
         d="M 435.2,153.6 H 320 v 25.6 H 422.4 V 486.4 H 89.6 V 179.2 H 192 V 153.6 H 76.8 c -7.066,0 -12.8,5.734 -12.8,12.8 v 332.8 c 0,7.066 5.734,12.8 12.8,12.8 h 358.4 c 7.066,0 12.8,-5.734 12.8,-12.8 V 166.4 c 0,-7.066 -5.734,-12.8 -12.8,-12.8 z"
         id="path211"
         style="fill:#bfbf18;fill-opacity:1;stroke:#bfbf18;stroke-width:7.1737563;stroke-miterlimit:4;stroke-dasharray:none;stroke-opacity:1" />
    </g>
  </g>
  <g
     id="g219"
     style="fill:#bfbf18;fill-opacity:1;stroke:#bfbf18;stroke-width:7.86921;stroke-miterlimit:4;stroke-dasharray:none;stroke-dashoffset:0;stroke-opacity:1"
     transform="matrix(2.7879397,0,0,-2.3169397,182.27875,724.01839)">
    <path
       d="m 341.956,234.249 c -4.941,-5.052 -13.056,-5.146 -18.099,-0.205 L 268.8,287.898 V 12.8 C 268.8,5.734 263.066,0 256,0 248.934,0 243.2,5.734 243.209,12.8 v 275.089 l -55.057,-53.854 c -5.043,-4.941 -13.158,-4.847 -18.099,0.205 -4.941,5.06 -4.855,13.158 0.205,18.099 l 76.8,75.128 c 5.043,4.949 13.158,4.855 18.099,-0.188 l 76.595,-74.931 c 5.051,-4.941 5.145,-13.039 0.204,-18.099 z"
       id="path217"
       style="fill:#bfbf18;fill-opacity:1;stroke:#bfbf18;stroke-width:7.86921;stroke-miterlimit:4;stroke-dasharray:none;stroke-dashoffset:0;stroke-opacity:1" />
  </g>
</svg>
