<?xml version="1.0" encoding="UTF-8" standalone="no"?>
<svg
   xmlns:dc="http://purl.org/dc/elements/1.1/"
   xmlns:cc="http://creativecommons.org/ns#"
   xmlns:rdf="http://www.w3.org/1999/02/22-rdf-syntax-ns#"
   xmlns:svg="http://www.w3.org/2000/svg"
   xmlns="http://www.w3.org/2000/svg"
   xmlns:sodipodi="http://sodipodi.sourceforge.net/DTD/sodipodi-0.dtd"
   xmlns:inkscape="http://www.inkscape.org/namespaces/inkscape"
   width="168.92947mm"
   height="64.679466mm"
   viewBox="0 0 168.92947 64.679466"
   version="1.1"
   id="svg2746"
   inkscape:version="1.0.2 (e86c8708, 2021-01-15)"
   sodipodi:docname="noice_logo.svg">
  <defs
     id="defs2740">
    <filter
       style="color-interpolation-filters:sRGB"
       inkscape:label="Drop Shadow"
       id="filter2675">
      <feFlood
         flood-opacity="0.219608"
         flood-color="rgb(0,0,0)"
         result="flood"
         id="feFlood2665" />
      <feComposite
         in="flood"
         in2="SourceGraphic"
         operator="in"
         result="composite1"
         id="feComposite2667" />
      <feGaussianBlur
         in="composite1"
         stdDeviation="0.8"
         result="blur"
         id="feGaussianBlur2669" />
      <feOffset
         dx="0.9"
         dy="0.9"
         result="offset"
         id="feOffset2671" />
      <feComposite
         in="SourceGraphic"
         in2="offset"
         operator="over"
         result="composite2"
         id="feComposite2673" />
    </filter>
  </defs>
  <sodipodi:namedview
     id="base"
     pagecolor="#ffffff"
     bordercolor="#666666"
     borderopacity="1.0"
     inkscape:pageopacity="0.0"
     inkscape:pageshadow="2"
     inkscape:zoom="0.98994949"
     inkscape:cx="319.23679"
     inkscape:cy="122.22891"
     inkscape:document-units="mm"
     inkscape:current-layer="layer1"
     inkscape:document-rotation="0"
     showgrid="false"
     fit-margin-top="0"
     fit-margin-left="0"
     fit-margin-right="0"
     fit-margin-bottom="0"
     inkscape:window-width="1252"
     inkscape:window-height="847"
     inkscape:window-x="1876"
     inkscape:window-y="151"
     inkscape:window-maximized="0" />
  <metadata
     id="metadata2743">
    <rdf:RDF>
      <cc:Work
         rdf:about="">
        <dc:format>image/svg+xml</dc:format>
        <dc:type
           rdf:resource="http://purl.org/dc/dcmitype/StillImage" />
        <dc:title></dc:title>
      </cc:Work>
    </rdf:RDF>
  </metadata>
  <g
     inkscape:label="Layer 1"
     inkscape:groupmode="layer"
     id="layer1"
     transform="translate(-21.3686,-115.82693)">
    <g
       id="g2699"
       transform="translate(20.093541,-31.164632)">
      <rect
         style="fill:#fffedc;fill-opacity:1;stroke:#0065b3;stroke-width:0.179467;stroke-linecap:round;stroke-linejoin:round"
         id="rect1618-1"
         width="168.75"
         height="64.5"
         x="1.3647927"
         y="147.0813"
         rx="12.5"
         ry="12.5" />
      <g
         id="g2183"
         style="filter:url(#filter2675)">
        <path
           style="color:#000000;font-style:normal;font-variant:normal;font-weight:normal;font-stretch:normal;font-size:26.4584px;line-height:1.25;font-family:'Bangla MN';-inkscape-font-specification:'Bangla MN';font-variant-ligatures:normal;font-variant-position:normal;font-variant-caps:normal;font-variant-numeric:normal;font-variant-alternates:normal;font-variant-east-asian:normal;font-feature-settings:normal;font-variation-settings:normal;text-indent:0;text-align:start;text-decoration:none;text-decoration-line:none;text-decoration-style:solid;text-decoration-color:#000000;letter-spacing:normal;word-spacing:normal;text-transform:none;writing-mode:lr-tb;direction:ltr;text-orientation:mixed;dominant-baseline:auto;baseline-shift:baseline;text-anchor:start;white-space:normal;shape-padding:0;shape-margin:0;inline-size:0;clip-rule:nonzero;display:inline;overflow:visible;visibility:visible;isolation:auto;mix-blend-mode:normal;color-interpolation:sRGB;color-interpolation-filters:linearRGB;solid-color:#000000;solid-opacity:1;vector-effect:none;fill:#96a7ad;fill-opacity:1;fill-rule:nonzero;stroke:none;stroke-width:0.529167;stroke-linecap:butt;stroke-linejoin:miter;stroke-miterlimit:4;stroke-dasharray:none;stroke-dashoffset:0;stroke-opacity:1;color-rendering:auto;image-rendering:auto;shape-rendering:auto;text-rendering:auto;enable-background:accumulate;stop-color:#000000"
           d="m 51.541016,171.52539 -0.04492,0.0195 -2.314453,0.90235 v 14.93945 h 3.527343 v -11.28516 c 0.300932,-0.28587 0.611164,-0.55235 0.935547,-0.78906 0.352528,-0.25725 0.703578,-0.47695 1.052735,-0.65625 h 0.002 c 0.359596,-0.18926 0.706213,-0.3352 1.041015,-0.4375 0.331827,-0.10139 0.638612,-0.15039 0.921875,-0.15039 0.318481,0 0.596216,0.0611 0.841797,0.17969 l 0.0039,0.002 0.0059,0.004 c 0.256588,0.11119 0.47469,0.27389 0.666016,0.5 0.188772,0.22309 0.340131,0.50874 0.449218,0.86328 l 0.002,0.002 c 0.107357,0.33996 0.164063,0.74949 0.164063,1.22852 v 10.53906 h 3.511719 v -11.05469 c 0,-0.65472 -0.101868,-1.27273 -0.308594,-1.85156 -0.205231,-0.58491 -0.490673,-1.09935 -0.855469,-1.53711 -0.364064,-0.43688 -0.793169,-0.78369 -1.285156,-1.03516 h -0.002 c -0.48796,-0.25423 -1.022138,-0.38281 -1.589844,-0.38281 -1.053864,0 -2.094492,0.26819 -3.107422,0.79492 -0.853497,0.43548 -1.657401,1.16064 -2.449219,1.96485 v -2.75977 z m 0.101562,0.5293 h 0.53711 v 3.4707 l 0.460937,-0.51562 c 0.89426,-1.00004 1.815097,-1.73698 2.759766,-2.21875 h 0.002 v -0.002 c 0.946951,-0.49242 1.898468,-0.73437 2.863281,-0.73437 0.48997,0 0.934527,0.10867 1.347656,0.32422 h 0.002 c 0.42859,0.21885 0.799535,0.51842 1.121094,0.90429 0.321163,0.3854 0.574973,0.84082 0.761719,1.37305 H 61.5 v 0.002 c 0.18525,0.5187 0.277344,1.07423 0.277344,1.67383 v 10.52539 h -2.453125 v -10.00976 c 0,-0.51981 -0.06199,-0.98234 -0.189453,-1.38672 v -0.002 c -0.126078,-0.40905 -0.308734,-0.76081 -0.550782,-1.04687 -0.238889,-0.28232 -0.527698,-0.49896 -0.857422,-0.64258 -0.321395,-0.15407 -0.679546,-0.23047 -1.064453,-0.23047 -0.343897,0 -0.702441,0.0596 -1.076171,0.17383 -0.370755,0.11329 -0.747653,0.2719 -1.132813,0.47461 -0.375228,0.19285 -0.749223,0.4259 -1.121094,0.69727 -0.372866,0.27209 -0.730544,0.57458 -1.072265,0.90625 l -0.08008,0.0762 v 10.99023 h -2.46875 v -14.04883 z"
           id="path2045" />
        <path
           style="color:#000000;font-style:normal;font-variant:normal;font-weight:normal;font-stretch:normal;font-size:26.4584px;line-height:1.25;font-family:'Bangla MN';-inkscape-font-specification:'Bangla MN';font-variant-ligatures:normal;font-variant-position:normal;font-variant-caps:normal;font-variant-numeric:normal;font-variant-alternates:normal;font-variant-east-asian:normal;font-feature-settings:normal;font-variation-settings:normal;text-indent:0;text-align:start;text-decoration:none;text-decoration-line:none;text-decoration-style:solid;text-decoration-color:#000000;letter-spacing:normal;word-spacing:normal;text-transform:none;writing-mode:lr-tb;direction:ltr;text-orientation:mixed;dominant-baseline:auto;baseline-shift:baseline;text-anchor:start;white-space:normal;shape-padding:0;shape-margin:0;inline-size:0;clip-rule:nonzero;display:inline;overflow:visible;visibility:visible;isolation:auto;mix-blend-mode:normal;color-interpolation:sRGB;color-interpolation-filters:linearRGB;solid-color:#000000;solid-opacity:1;vector-effect:none;fill:#ed553b;fill-opacity:1;fill-rule:nonzero;stroke:none;stroke-width:0.529167;stroke-linecap:butt;stroke-linejoin:miter;stroke-miterlimit:4;stroke-dasharray:none;stroke-dashoffset:0;stroke-opacity:1;color-rendering:auto;image-rendering:auto;shape-rendering:auto;text-rendering:auto;enable-background:accumulate;stop-color:#000000"
           d="m 74.263672,171.52539 c -1.188469,0 -2.289548,0.21761 -3.294922,0.6543 -0.999693,0.42433 -1.867654,1.01339 -2.597656,1.76367 -0.729593,0.74986 -1.303089,1.63353 -1.716797,2.64258 -0.405075,1.00256 -0.607422,2.07629 -0.607422,3.21484 0,1.091 0.203483,2.1239 0.609375,3.08789 v 0.002 c 0.414707,0.9508 0.989504,1.7887 1.71875,2.50782 v 0.002 c 0.730503,0.71021 1.599284,1.27404 2.597656,1.6875 1.004475,0.416 2.104042,0.62109 3.291016,0.62109 1.179698,0 2.271344,-0.22263 3.267578,-0.66992 h 0.002 c 0.999227,-0.45419 1.866437,-1.0681 2.595703,-1.83789 h 0.002 c 0.728294,-0.77887 1.295845,-1.68679 1.699219,-2.71484 v -0.002 c 0.413927,-1.04054 0.621094,-2.14722 0.621094,-3.31446 0,-1.06191 -0.208722,-2.06091 -0.625,-2.98633 l -0.002,-0.002 c -0.405548,-0.93185 -0.974667,-1.74767 -1.705078,-2.4375 -0.731211,-0.69059 -1.599076,-1.23358 -2.597657,-1.62695 -0.993952,-0.39556 -2.081883,-0.5918 -3.257812,-0.5918 z m 0,0.5293 c 1.117132,0 2.135768,0.18588 3.0625,0.55469 0.941701,0.37096 1.749783,0.87739 2.429687,1.51953 0.680036,0.64225 1.207603,1.39545 1.585938,2.26562 v 0.002 c 0.38612,0.857 0.580078,1.77894 0.580078,2.77344 0,1.10556 -0.194831,2.14347 -0.583984,3.1211 v 0.002 c -0.380198,0.9695 -0.910236,1.81553 -1.591797,2.54492 -3.65e-4,3.9e-4 -0.0016,-3.8e-4 -0.002,0 -3.76e-4,4e-4 3.76e-4,0.002 0,0.002 -0.681456,0.71881 -1.489492,1.28944 -2.429688,1.7168 -0.923992,0.41455 -1.938101,0.62305 -3.050781,0.62305 -1.125686,0 -2.152083,-0.19447 -3.087891,-0.58203 -0.941032,-0.38972 -1.749473,-0.91339 -2.429687,-1.57422 l -0.002,-0.002 c -0.680934,-0.67195 -1.21309,-1.45115 -1.601563,-2.34179 -0.377076,-0.89688 -0.566406,-1.85458 -0.566406,-2.87891 0,-1.07611 0.189481,-2.0779 0.568359,-3.01562 0.389844,-0.95084 0.923947,-1.7722 1.605469,-2.47266 0.680737,-0.69964 1.487795,-1.24772 2.427734,-1.64648 h 0.002 c 0.934909,-0.40608 1.959793,-0.61133 3.083984,-0.61133 z m -0.734375,0.58789 c -0.550224,0 -1.086855,0.16576 -1.591797,0.48047 -0.503375,0.30412 -0.947609,0.72159 -1.328125,1.24609 v 0.002 l -0.002,0.002 c -0.370555,0.52495 -0.666128,1.13795 -0.888672,1.83593 -0.224201,0.69367 -0.335938,1.43186 -0.335938,2.21094 0,1.11565 0.115195,2.16431 0.345704,3.14649 v 0.002 0.002 c 0.240663,0.98271 0.589174,1.84736 1.046875,2.58985 l 0.002,0.002 c 0.468247,0.74309 1.038514,1.33966 1.708984,1.7832 l 0.002,0.002 0.002,0.002 c 0.689655,0.43887 1.478456,0.6582 2.345704,0.6582 0.633531,0 1.227559,-0.16734 1.757812,-0.49609 0.52211,-0.32371 0.970393,-0.7565 1.341797,-1.29297 v -0.002 h 0.002 c 0.369969,-0.54468 0.654659,-1.16961 0.857422,-1.86914 0.203314,-0.70144 0.304687,-1.44129 0.304687,-2.21875 0,-1.10283 -0.09531,-2.14016 -0.285156,-3.10938 -0.191052,-0.97538 -0.503961,-1.83263 -0.943359,-2.56836 -0.441487,-0.73924 -1.023539,-1.32787 -1.736328,-1.75195 -0.724167,-0.4408 -1.597912,-0.65625 -2.605469,-0.65625 z m 0,0.5293 c 0.932726,0 1.703879,0.19772 2.332031,0.58007 h 0.002 c 0.638438,0.37936 1.153921,0.89926 1.554688,1.57032 0.403351,0.67537 0.697581,1.47272 0.878906,2.39843 0.182529,0.93186 0.273438,1.93518 0.273437,3.00782 0,0.73164 -0.09454,1.42138 -0.283203,2.07226 -0.189213,0.65279 -0.453473,1.22273 -0.789062,1.7168 -0.333795,0.48151 -0.72653,0.86115 -1.183594,1.14453 -0.449687,0.2788 -0.936118,0.41602 -1.478515,0.41601 -0.777494,0 -1.455631,-0.19147 -2.058594,-0.57421 l -0.002,-0.002 c -0.60212,-0.3988 -1.118183,-0.93493 -1.550782,-1.62109 v -0.002 c -0.423119,-0.68678 -0.750972,-1.49629 -0.980468,-2.43164 -0.220264,-0.93852 -0.332032,-1.94793 -0.332032,-3.02735 0,-0.72935 0.103964,-1.41225 0.310547,-2.05078 0.208341,-0.65343 0.482041,-1.21528 0.816406,-1.68945 l 0.002,-0.002 c 0.344205,-0.47385 0.733304,-0.83777 1.169922,-1.10156 v -0.002 l 0.002,-0.002 c 0.434658,-0.27166 0.868515,-0.4004 1.316406,-0.40039 z"
           id="path2047" />
        <path
           style="color:#000000;font-style:normal;font-variant:normal;font-weight:normal;font-stretch:normal;font-size:26.4584px;line-height:1.25;font-family:'Bangla MN';-inkscape-font-specification:'Bangla MN';font-variant-ligatures:normal;font-variant-position:normal;font-variant-caps:normal;font-variant-numeric:normal;font-variant-alternates:normal;font-variant-east-asian:normal;font-feature-settings:normal;font-variation-settings:normal;text-indent:0;text-align:start;text-decoration:none;text-decoration-line:none;text-decoration-style:solid;text-decoration-color:#000000;letter-spacing:normal;word-spacing:normal;text-transform:none;writing-mode:lr-tb;direction:ltr;text-orientation:mixed;dominant-baseline:auto;baseline-shift:baseline;text-anchor:start;white-space:normal;shape-padding:0;shape-margin:0;inline-size:0;clip-rule:nonzero;display:inline;overflow:visible;visibility:visible;isolation:auto;mix-blend-mode:normal;color-interpolation:sRGB;color-interpolation-filters:linearRGB;solid-color:#000000;solid-opacity:1;vector-effect:none;fill:#96a7ad;fill-opacity:1;fill-rule:nonzero;stroke:none;stroke-width:0.529167;stroke-linecap:butt;stroke-linejoin:miter;stroke-miterlimit:4;stroke-dasharray:none;stroke-dashoffset:0;stroke-opacity:1;color-rendering:auto;image-rendering:auto;shape-rendering:auto;text-rendering:auto;enable-background:accumulate;stop-color:#000000"
           d="m 88.150391,164.33789 c -0.268259,0 -0.526295,0.0517 -0.765625,0.1543 -0.235606,0.10097 -0.446776,0.24365 -0.626954,0.42383 -0.180177,0.18017 -0.320901,0.39135 -0.421874,0.62695 -0.10257,0.23933 -0.154297,0.49737 -0.154297,0.76562 0,0.26826 0.05173,0.5263 0.154297,0.76563 0.100973,0.23561 0.241695,0.44678 0.421874,0.62695 0.180178,0.18018 0.391348,0.3209 0.626954,0.42188 0.23933,0.10257 0.497366,0.15429 0.765625,0.15429 0.268258,0 0.526294,-0.0517 0.765625,-0.15429 0.235605,-0.10098 0.446776,-0.2417 0.626953,-0.42188 0.180179,-0.18017 0.322855,-0.39134 0.423828,-0.62695 0.102571,-0.23933 0.154297,-0.49737 0.154297,-0.76563 0,-0.26825 -0.05173,-0.52629 -0.154297,-0.76562 -0.100974,-0.2356 -0.24365,-0.44678 -0.423828,-0.62695 -0.180177,-0.18018 -0.391348,-0.32286 -0.626953,-0.42383 -0.239331,-0.10257 -0.497367,-0.1543 -0.765625,-0.1543 z m 0,0.5293 c 0.202113,0 0.386349,0.0375 0.558593,0.11133 0.17597,0.0754 0.327534,0.17714 0.460938,0.31054 0.133403,0.1334 0.235131,0.28497 0.310547,0.46094 0.07382,0.17225 0.111328,0.35649 0.111328,0.55859 0,0.20212 -0.03751,0.3844 -0.111328,0.55664 -0.07542,0.17598 -0.177145,0.32754 -0.310547,0.46094 -0.133404,0.13341 -0.284968,0.23513 -0.460938,0.31055 -0.172244,0.0738 -0.35648,0.11133 -0.558593,0.11133 -0.202114,0 -0.384397,-0.0375 -0.556641,-0.11133 -0.175969,-0.0754 -0.327533,-0.17714 -0.460938,-0.31055 -0.133402,-0.1334 -0.23513,-0.28496 -0.310546,-0.46094 -0.07382,-0.17224 -0.111329,-0.35452 -0.111328,-0.55664 0,-0.2021 0.03751,-0.38634 0.111328,-0.55859 0.07542,-0.17597 0.177143,-0.32754 0.310546,-0.46094 0.133405,-0.1334 0.284969,-0.23513 0.460938,-0.31054 0.172244,-0.0738 0.354527,-0.11133 0.556641,-0.11133 z m 0.580078,6.6582 -2.314453,0.93945 v 0.17774 14.74414 h 3.498046 v -15.86133 z m 0.103515,0.5293 h 0.550782 v 14.80273 h -2.439454 v -14.03515 z"
           id="path2049" />
        <path
           style="color:#000000;font-style:normal;font-variant:normal;font-weight:normal;font-stretch:normal;font-size:26.4584px;line-height:1.25;font-family:'Bangla MN';-inkscape-font-specification:'Bangla MN';font-variant-ligatures:normal;font-variant-position:normal;font-variant-caps:normal;font-variant-numeric:normal;font-variant-alternates:normal;font-variant-east-asian:normal;font-feature-settings:normal;font-variation-settings:normal;text-indent:0;text-align:start;text-decoration:none;text-decoration-line:none;text-decoration-style:solid;text-decoration-color:#000000;letter-spacing:normal;word-spacing:normal;text-transform:none;writing-mode:lr-tb;direction:ltr;text-orientation:mixed;dominant-baseline:auto;baseline-shift:baseline;text-anchor:start;white-space:normal;shape-padding:0;shape-margin:0;inline-size:0;clip-rule:nonzero;display:inline;overflow:visible;visibility:visible;isolation:auto;mix-blend-mode:normal;color-interpolation:sRGB;color-interpolation-filters:linearRGB;solid-color:#000000;solid-opacity:1;vector-effect:none;fill:#96a7ad;fill-opacity:1;fill-rule:nonzero;stroke:none;stroke-width:0.529167;stroke-linecap:butt;stroke-linejoin:miter;stroke-miterlimit:4;stroke-dasharray:none;stroke-dashoffset:0;stroke-opacity:1;color-rendering:auto;image-rendering:auto;shape-rendering:auto;text-rendering:auto;enable-background:accumulate;stop-color:#000000"
           d="m 101.9043,171.52539 c -0.73953,0 -1.45749,0.10146 -2.148441,0.30469 v 0.002 c -0.679013,0.20269 -1.319791,0.49207 -1.917968,0.86719 -0.596371,0.36432 -1.142343,0.8038 -1.636719,1.31836 l -0.002,0.002 c -0.485049,0.51536 -0.904647,1.08728 -1.257813,1.71289 v 0.002 h -0.002 c -0.343951,0.6272 -0.611392,1.3042 -0.802734,2.02929 -0.192363,0.71884 -0.28711,1.46783 -0.28711,2.24414 0,1.06085 0.192189,2.06172 0.578125,2.9961 0.383789,0.92917 0.906846,1.74711 1.566407,2.44726 0.660327,0.70097 1.439849,1.25658 2.332031,1.66211 h 0.002 c 0.896628,0.39737 1.860972,0.5957 2.884762,0.5957 0.87992,0 1.70051,-0.13607 2.45703,-0.4121 h 0.002 c 0.76393,-0.2852 1.45051,-0.6958 2.05273,-1.22657 0.61094,-0.53966 1.13809,-1.19413 1.58203,-1.96093 0.44405,-0.76701 0.79467,-1.63172 1.05469,-2.5918 l 0.0625,-0.22656 -1.36133,-0.55664 -0.0977,0.25 c -0.21161,0.53865 -0.45191,1.05142 -0.7207,1.54101 -0.26259,0.46862 -0.57456,0.87879 -0.9375,1.23242 h -0.002 l -0.002,0.002 c -0.34713,0.34713 -0.76331,0.62659 -1.2539,0.83984 -0.46977,0.19875 -1.03469,0.30273 -1.70313,0.30273 -0.75084,0 -1.42016,-0.17388 -2.02539,-0.52148 l -0.004,-0.002 c -0.603118,-0.36256 -1.121935,-0.84814 -1.562501,-1.4668 -0.43172,-0.61977 -0.772042,-1.34135 -1.019531,-2.16797 -0.237929,-0.83751 -0.357422,-1.72426 -0.357422,-2.66211 0,-0.68105 0.09369,-1.31971 0.28125,-1.91992 0.187375,-0.5996 0.457716,-1.11733 0.808594,-1.56055 0.349359,-0.44129 0.772848,-0.78904 1.279297,-1.04687 0.499103,-0.25409 1.060793,-0.38281 1.701173,-0.38281 0.49486,0 0.91117,0.0963 1.25976,0.27929 0.36325,0.1907 0.67289,0.43815 0.93555,0.7461 l 0.004,0.002 0.002,0.004 c 0.276,0.3036 0.50054,0.64335 0.67578,1.02149 0.18057,0.38967 0.32219,0.77173 0.42578,1.14844 l 0.10156,0.36718 0.3086,-0.22265 2.34765,-1.69727 -0.084,-0.19531 c -0.20843,-0.47939 -0.50201,-0.91306 -0.875,-1.29688 l -0.002,-0.002 c -0.37097,-0.39115 -0.79873,-0.71548 -1.28126,-0.97265 l -0.004,-0.002 c -0.48091,-0.26559 -1.00642,-0.46937 -1.57422,-0.61133 -0.5707,-0.14267 -1.1652,-0.21484 -1.7832,-0.21484 z m 0,0.5293 c 0.57752,0 1.12745,0.0675 1.65429,0.19922 0.52828,0.13207 1.01196,0.31952 1.45118,0.5625 h 0.002 l 0.002,0.002 c 0.43623,0.23203 0.81918,0.52332 1.15235,0.875 l 0.002,0.002 c 0.2815,0.28932 0.47826,0.62194 0.65234,0.96875 l -1.68945,1.22266 c -0.0967,-0.29406 -0.18831,-0.58728 -0.32617,-0.88477 -0.19675,-0.42457 -0.45253,-0.80968 -0.76367,-1.15234 -0.30498,-0.35649 -0.66884,-0.64718 -1.0879,-0.86719 -0.43535,-0.22856 -0.94239,-0.33984 -1.50585,-0.33984 -0.71195,0 -1.36258,0.14673 -1.941411,0.4414 -0.571485,0.29095 -1.059681,0.68806 -1.455078,1.1875 -0.393877,0.49754 -0.691883,1.07771 -0.896484,1.73243 -0.204413,0.65412 -0.306641,1.34807 -0.306641,2.07812 0,0.98285 0.124913,1.91946 0.376953,2.80664 v 0.002 l 0.002,0.002 c 0.261787,0.87597 0.625166,1.6519 1.09375,2.32422 h 0.002 v 0.002 c 0.479719,0.67365 1.057265,1.2156 1.726561,1.61719 h 0.002 l 0.002,0.002 c 0.68733,0.39573 1.45785,0.59375 2.29297,0.59375 0.72309,0 1.3608,-0.11133 1.91016,-0.34375 l 0.002,-0.002 c 0.54614,-0.237 1.02136,-0.55311 1.41797,-0.94922 l 0.002,-0.002 c 0.40023,-0.39034 0.74376,-0.84166 1.0293,-1.35157 v -0.002 c 0.23741,-0.43243 0.44276,-0.89174 0.63672,-1.35937 l 0.41992,0.17187 c -0.24132,0.82503 -0.53226,1.59052 -0.91406,2.25 -0.41841,0.7227 -0.90962,1.33101 -1.47461,1.83008 -0.55344,0.48778 -1.1818,0.86149 -1.88672,1.125 -0.69379,0.25314 -1.45021,0.38086 -2.27539,0.38086 -0.95501,0 -1.840396,-0.18236 -2.667965,-0.54883 h -0.002 c -0.831882,-0.37835 -1.550835,-0.892 -2.164063,-1.54297 -0.614363,-0.65217 -1.101924,-1.41124 -1.46289,-2.28516 -0.358819,-0.86872 -0.539063,-1.7979 -0.539063,-2.79492 0,-0.73279 0.09147,-1.43473 0.271485,-2.10742 0.180811,-0.68518 0.432069,-1.32089 0.753906,-1.9082 l 0.002,-0.002 c 0.332049,-0.58776 0.723455,-1.12248 1.177734,-1.60546 l 0.002,-0.002 c 0.464443,-0.48307 0.975439,-0.89404 1.533204,-1.23437 h 0.002 v -0.002 c 0.558153,-0.35002 1.153003,-0.61931 1.787109,-0.80859 0.641773,-0.18876 1.306853,-0.2832 1.998053,-0.2832 z"
           id="path2051" />
        <path
           style="color:#000000;font-style:normal;font-variant:normal;font-weight:normal;font-stretch:normal;font-size:26.4584px;line-height:1.25;font-family:'Bangla MN';-inkscape-font-specification:'Bangla MN';font-variant-ligatures:normal;font-variant-position:normal;font-variant-caps:normal;font-variant-numeric:normal;font-variant-alternates:normal;font-variant-east-asian:normal;font-feature-settings:normal;font-variation-settings:normal;text-indent:0;text-align:start;text-decoration:none;text-decoration-line:none;text-decoration-style:solid;text-decoration-color:#000000;letter-spacing:normal;word-spacing:normal;text-transform:none;writing-mode:lr-tb;direction:ltr;text-orientation:mixed;dominant-baseline:auto;baseline-shift:baseline;text-anchor:start;white-space:normal;shape-padding:0;shape-margin:0;inline-size:0;clip-rule:nonzero;display:inline;overflow:visible;visibility:visible;isolation:auto;mix-blend-mode:normal;color-interpolation:sRGB;color-interpolation-filters:linearRGB;solid-color:#000000;solid-opacity:1;vector-effect:none;fill:#96a7ad;fill-opacity:1;fill-rule:nonzero;stroke:none;stroke-width:0.529167;stroke-linecap:butt;stroke-linejoin:miter;stroke-miterlimit:4;stroke-dasharray:none;stroke-dashoffset:0;stroke-opacity:1;color-rendering:auto;image-rendering:auto;shape-rendering:auto;text-rendering:auto;enable-background:accumulate;stop-color:#000000"
           d="m 118.71484,171.52539 c -1.1504,0 -2.20557,0.21759 -3.15429,0.65625 v 0.002 c -0.93373,0.43642 -1.73969,1.0424 -2.41016,1.81446 -0.6707,0.77231 -1.18826,1.69071 -1.55078,2.74804 h 0.002 c -0.36332,1.04961 -0.54492,2.19269 -0.54492,3.42383 0,1.03326 0.19942,2.01481 0.5957,2.93946 v 0.002 0.002 c 0.40468,0.91053 0.95446,1.70875 1.64454,2.38867 0.6901,0.67996 1.49773,1.2189 2.41796,1.61328 h 0.002 c 0.93453,0.39617 1.93216,0.59375 2.98437,0.59375 0.80765,0 1.6056,-0.15388 2.38867,-0.45898 0.77835,-0.30325 1.49724,-0.71298 2.1543,-1.22852 0.66644,-0.52508 1.24771,-1.13768 1.74219,-1.83398 0.49695,-0.69978 0.86012,-1.45393 1.08398,-2.25781 l 0.0605,-0.22071 -1.35352,-0.5957 -0.084,0.28906 c -0.12682,0.43482 -0.34834,0.86082 -0.67383,1.2793 -0.3259,0.41902 -0.72327,0.79204 -1.19336,1.12109 v 0.002 h -0.002 c -0.45811,0.32722 -0.97366,0.59489 -1.54883,0.80273 -0.57,0.19623 -1.16255,0.29492 -1.78125,0.29492 -0.73396,0 -1.3961,-0.16457 -2.00391,-0.49609 -0.61256,-0.33413 -1.14206,-0.79684 -1.59179,-1.39648 -0.44974,-0.59965 -0.80359,-1.31679 -1.06055,-2.1543 -0.22237,-0.75387 -0.31429,-1.58776 -0.33594,-2.46485 h 11.18164 v -0.26367 c 0,-0.86822 -0.17619,-1.70532 -0.52343,-2.50195 -0.33608,-0.79345 -0.81563,-1.49511 -1.43555,-2.0957 l -0.002,-0.002 c -0.61268,-0.61216 -1.34871,-1.09657 -2.19922,-1.45117 h -0.002 c -0.85762,-0.36726 -1.79562,-0.55078 -2.80664,-0.55078 z m 0,0.5293 c 0.94819,0 1.81336,0.17001 2.60157,0.50781 v 0.002 h 0.002 c 0.79425,0.33094 1.46875,0.77735 2.03125,1.33985 h 0.002 l 0.002,0.002 c 0.57301,0.55423 1.01039,1.1952 1.32031,1.92773 h 0.002 v 0.002 c 0.28214,0.64725 0.39131,1.32766 0.42383,2.02539 h -11.1623 v 0.26562 c 0,1.03161 0.1318,1.99161 0.39453,2.88086 v 0.002 0.002 c 0.2722,0.88718 0.65157,1.65977 1.14258,2.31445 0.49101,0.65468 1.08077,1.17154 1.76172,1.54297 0.68572,0.37402 1.44347,0.5625 2.25781,0.5625 0.67482,0 1.32759,-0.10887 1.95313,-0.32422 h 0.002 0.002 c 0.61805,-0.2229 1.17699,-0.51362 1.67774,-0.87109 0.50984,-0.35689 0.94658,-0.76559 1.30664,-1.22852 0.29485,-0.37909 0.47373,-0.78359 0.62695,-1.1914 l 0.40039,0.17578 c -0.20938,0.6638 -0.48977,1.3014 -0.9082,1.89062 -0.46587,0.65602 -1.00964,1.22859 -1.63672,1.72266 -0.61687,0.484 -1.28877,0.86763 -2.01953,1.15234 -0.72604,0.28288 -1.45661,0.42188 -2.19727,0.42188 -0.9854,0 -1.90929,-0.18308 -2.77734,-0.55078 h -0.002 c -0.86261,-0.3699 -1.61169,-0.87113 -2.25391,-1.50391 -0.64162,-0.63218 -1.15022,-1.37102 -1.5293,-2.22266 v -0.002 c -3.8e-4,-8.6e-4 -0.002,-10e-4 -0.002,-0.002 -0.36697,-0.8577 -0.55078,-1.76416 -0.55078,-2.72852 0,-1.17951 0.17339,-2.26133 0.51562,-3.25 v -0.002 c 0.34305,-1.00054 0.8264,-1.85508 1.44922,-2.57227 0.6227,-0.71705 1.36369,-1.27732 2.23242,-1.68359 0.87397,-0.4041 1.84778,-0.60742 2.93164,-0.60742 z m -0.92578,0.58789 c -0.48895,0 -0.96177,0.11474 -1.40625,0.33594 -4.6e-4,2.2e-4 -0.001,-2.3e-4 -0.002,0 -0.44391,0.21162 -0.84118,0.51427 -1.18555,0.90039 -0.34355,0.37552 -0.62833,0.82025 -0.85351,1.33203 v 0.004 0.002 c -0.21761,0.51812 -0.34765,1.07701 -0.38868,1.67187 l -0.0195,0.28125 8,0.0156 v -0.26563 c 0,-0.59963 -0.10868,-1.16434 -0.32812,-1.6875 -0.20813,-0.51937 -0.50274,-0.97148 -0.88086,-1.34961 -0.37566,-0.38529 -0.81541,-0.68987 -1.31445,-0.9082 -0.50437,-0.22066 -1.04846,-0.33203 -1.6211,-0.33203 z m 0,0.5293 c 0.5053,0 0.97183,0.0962 1.40821,0.2871 0.44034,0.19266 0.82115,0.45654 1.15039,0.79493 h 0.002 l 0.002,0.002 c 0.32679,0.32679 0.57988,0.7163 0.76367,1.17578 l 0.002,0.002 v 0.002 c 0.1576,0.37525 0.2082,0.79222 0.23633,1.2207 l -6.8086,-0.0156 c 0.0542,-0.42552 0.12471,-0.84112 0.28125,-1.21484 l 0.002,-0.002 c 2.4e-4,-5.7e-4 -2.3e-4,-0.001 0,-0.002 0.20505,-0.4649 0.45876,-0.86108 0.75977,-1.18946 h 0.002 v -0.002 c 0.30203,-0.33864 0.64086,-0.59507 1.01954,-0.77539 h 0.002 l 0.002,-0.002 c 0.37702,-0.1885 0.76527,-0.28124 1.17578,-0.28124 z"
           id="path2053" />
        <path
           style="color:#000000;font-style:normal;font-variant:normal;font-weight:normal;font-stretch:normal;font-size:26.4584px;line-height:1.25;font-family:'Bangla MN';-inkscape-font-specification:'Bangla MN';font-variant-ligatures:normal;font-variant-position:normal;font-variant-caps:normal;font-variant-numeric:normal;font-variant-alternates:normal;font-variant-east-asian:normal;font-feature-settings:normal;font-variation-settings:normal;text-indent:0;text-align:start;text-decoration:none;text-decoration-line:none;text-decoration-style:solid;text-decoration-color:#000000;letter-spacing:normal;word-spacing:normal;text-transform:none;writing-mode:lr-tb;direction:ltr;text-orientation:mixed;dominant-baseline:auto;baseline-shift:baseline;text-anchor:start;white-space:normal;shape-padding:0;shape-margin:0;inline-size:0;clip-rule:nonzero;display:inline;overflow:visible;visibility:visible;isolation:auto;mix-blend-mode:normal;color-interpolation:sRGB;color-interpolation-filters:linearRGB;solid-color:#000000;solid-opacity:1;vector-effect:none;fill:#96a7ad;fill-opacity:1;fill-rule:nonzero;stroke:none;stroke-width:0.529167;stroke-linecap:butt;stroke-linejoin:miter;stroke-miterlimit:4;stroke-dasharray:none;stroke-dashoffset:0;stroke-opacity:1;color-rendering:auto;image-rendering:auto;shape-rendering:auto;text-rendering:auto;enable-background:accumulate;stop-color:#000000"
           d="m 130.63477,184.21094 c -0.25714,0 -0.50582,0.0527 -0.73438,0.15429 -0.22256,0.0896 -0.42331,0.21397 -0.59375,0.37305 -0.17364,0.16207 -0.31082,0.3589 -0.41211,0.58399 l -0.002,0.004 -0.002,0.002 c -0.0919,0.21832 -0.13867,0.45203 -0.13867,0.69141 0,0.25606 0.0455,0.49932 0.13867,0.7207 l 0.002,0.004 0.004,0.006 c 0.10059,0.21234 0.23574,0.39984 0.4043,0.55859 0.001,0.001 0.003,9.3e-4 0.004,0.002 0.17128,0.17044 0.37323,0.30397 0.59961,0.39453 0.22846,0.0914 0.4744,0.13672 0.73047,0.13672 0.24765,0 0.48779,-0.0459 0.71484,-0.13672 0.22639,-0.0906 0.42833,-0.22409 0.59961,-0.39453 0.17088,-0.16032 0.30477,-0.35014 0.39648,-0.56641 0.10413,-0.22207 0.1543,-0.46685 0.1543,-0.72461 0,-0.24021 -0.0528,-0.47372 -0.1543,-0.69141 -0.0916,-0.22638 -0.22437,-0.42738 -0.39843,-0.58984 -0.17044,-0.15908 -0.37119,-0.28347 -0.59375,-0.37305 -0.22746,-0.1014 -0.46917,-0.15429 -0.71875,-0.15429 z m 0,0.52929 c 0.1795,0 0.34493,0.0361 0.50781,0.10938 l 0.006,0.002 0.004,0.002 c 0.16776,0.0671 0.31112,0.15716 0.4336,0.27148 0.1182,0.11032 0.20831,0.24149 0.27344,0.4043 l 0.002,0.008 0.004,0.008 c 0.072,0.15211 0.10743,0.30662 0.10743,0.47461 0,0.19088 -0.0369,0.35504 -0.10743,0.50391 l -0.002,0.006 -0.004,0.004 c -0.0645,0.1531 -0.15294,0.28207 -0.27344,0.39453 l -0.004,0.004 -0.004,0.004 c -0.12204,0.12204 -0.26155,0.2136 -0.42578,0.27929 -0.16492,0.066 -0.33406,0.0977 -0.51757,0.0977 -0.19472,0 -0.37165,-0.0323 -0.53516,-0.0977 -0.16422,-0.0657 -0.30373,-0.15725 -0.42578,-0.27929 l -0.002,-0.004 -0.004,-0.004 c -0.11986,-0.11187 -0.21515,-0.24167 -0.28906,-0.39453 v -0.002 c -0.0631,-0.15058 -0.0977,-0.31772 -0.0977,-0.51172 0,-0.17006 0.0324,-0.32819 0.0957,-0.48047 l 0.002,-0.002 c 0.0749,-0.16566 0.16936,-0.30039 0.28906,-0.41211 0.12249,-0.11432 0.26389,-0.20439 0.43164,-0.27148 l 0.006,-0.002 0.006,-0.002 c 0.16137,-0.0726 0.33256,-0.10938 0.52344,-0.10938 z"
           id="path2055" />
        <path
           style="color:#000000;font-style:normal;font-variant:normal;font-weight:normal;font-stretch:normal;font-size:26.4584px;line-height:1.25;font-family:'Bangla MN';-inkscape-font-specification:'Bangla MN';font-variant-ligatures:normal;font-variant-position:normal;font-variant-caps:normal;font-variant-numeric:normal;font-variant-alternates:normal;font-variant-east-asian:normal;font-feature-settings:normal;font-variation-settings:normal;text-indent:0;text-align:start;text-decoration:none;text-decoration-line:none;text-decoration-style:solid;text-decoration-color:#000000;letter-spacing:normal;word-spacing:normal;text-transform:none;writing-mode:lr-tb;direction:ltr;text-orientation:mixed;dominant-baseline:auto;baseline-shift:baseline;text-anchor:start;white-space:normal;shape-padding:0;shape-margin:0;inline-size:0;clip-rule:nonzero;display:inline;overflow:visible;visibility:visible;isolation:auto;mix-blend-mode:normal;color-interpolation:sRGB;color-interpolation-filters:linearRGB;solid-color:#000000;solid-opacity:1;vector-effect:none;fill:#96a7ad;fill-opacity:1;fill-rule:nonzero;stroke:none;stroke-width:0.529167;stroke-linecap:butt;stroke-linejoin:miter;stroke-miterlimit:4;stroke-dasharray:none;stroke-dashoffset:0;stroke-opacity:1;color-rendering:auto;image-rendering:auto;shape-rendering:auto;text-rendering:auto;enable-background:accumulate;stop-color:#000000"
           d="m 138.24805,164.33789 c -0.26826,0 -0.5263,0.0517 -0.76563,0.1543 -0.2356,0.10097 -0.44677,0.24365 -0.62695,0.42383 -0.18017,0.18017 -0.32285,0.39135 -0.42383,0.62695 -0.10257,0.23933 -0.1543,0.49737 -0.1543,0.76562 0,0.26826 0.0517,0.5263 0.1543,0.76563 0.10098,0.23561 0.24366,0.44678 0.42383,0.62695 0.18018,0.18018 0.39135,0.3209 0.62695,0.42188 0.23933,0.10257 0.49737,0.15429 0.76563,0.15429 0.26826,0 0.52629,-0.0517 0.76562,-0.15429 0.23561,-0.10098 0.44678,-0.2417 0.62695,-0.42188 0.18018,-0.18017 0.32091,-0.39134 0.42188,-0.62695 0.10258,-0.23933 0.1543,-0.49736 0.1543,-0.76563 0,-0.26825 -0.0517,-0.52629 -0.1543,-0.76562 -0.10097,-0.2356 -0.2417,-0.44678 -0.42188,-0.62695 -0.18017,-0.18018 -0.39134,-0.32286 -0.62695,-0.42383 -0.23933,-0.10257 -0.49736,-0.1543 -0.76562,-0.1543 z m 0,0.5293 c 0.20211,0 0.38439,0.0375 0.55664,0.11133 0.17597,0.0754 0.32753,0.17713 0.46093,0.31054 0.1334,0.1334 0.23514,0.28497 0.31055,0.46094 0.0738,0.17225 0.11133,0.35649 0.11133,0.55859 0,0.20212 -0.0375,0.3844 -0.11133,0.55664 -0.0754,0.17598 -0.17715,0.32754 -0.31055,0.46094 -0.1334,0.13341 -0.28496,0.23513 -0.46093,0.31055 -0.17225,0.0738 -0.35453,0.11133 -0.55664,0.11133 -0.20212,0 -0.38635,-0.0375 -0.5586,-0.11133 -0.17597,-0.0754 -0.32753,-0.17714 -0.46093,-0.31055 -0.1334,-0.1334 -0.23513,-0.28496 -0.31055,-0.46094 -0.0738,-0.17224 -0.11133,-0.35452 -0.11133,-0.55664 0,-0.2021 0.0375,-0.38634 0.11133,-0.55859 0.0754,-0.17597 0.17714,-0.32754 0.31055,-0.46094 0.1334,-0.13341 0.28496,-0.23513 0.46093,-0.31054 0.17225,-0.0738 0.35648,-0.11133 0.5586,-0.11133 z m 0.58007,6.6582 -2.33007,0.93945 v 17.93555 c 0,0.47586 -0.0382,0.86261 -0.10938,1.15625 l -0.002,0.004 v 0.004 c -0.0634,0.29898 -0.15771,0.52665 -0.26758,0.6836 l -0.002,0.002 -0.002,0.004 c -0.10238,0.15751 -0.21757,0.25304 -0.36132,0.31054 l -0.008,0.004 -0.008,0.004 c -0.14723,0.0697 -0.31742,0.10546 -0.51953,0.10546 -0.33636,0 -0.63764,-0.0498 -0.91016,-0.14648 h -0.002 l -0.004,-0.002 c -0.26971,-0.0899 -0.51321,-0.21436 -0.73632,-0.375 -0.22553,-0.16238 -0.42264,-0.35026 -0.59375,-0.56641 l -0.002,-0.002 -0.002,-0.004 c -0.18557,-0.22269 -0.34937,-0.45894 -0.48828,-0.70898 l -0.14453,-0.25977 -0.24219,0.17578 -2.14258,1.5625 0.21289,0.21875 c 0.51405,0.52433 1.13751,0.94401 1.85938,1.25977 5.9e-4,2.7e-4 0.001,-2.7e-4 0.002,0 8.7e-4,3.8e-4 0.001,0.002 0.002,0.002 0.71725,0.32723 1.46518,0.49219 2.23633,0.49219 0.81227,0 1.56357,-0.0852 2.25391,-0.25781 0.71037,-0.16766 1.33164,-0.51721 1.84375,-1.03907 l 0.002,-0.002 c 0.52968,-0.53039 0.9281,-1.27148 1.21094,-2.21094 0.28593,-0.9497 0.42187,-2.17791 0.42187,-3.69336 v -15.5957 z m 0.10352,0.5293 h 0.53516 v 15.0664 c 0,1.48317 -0.13755,2.66803 -0.40039,3.54102 -0.26562,0.88225 -0.63065,1.5408 -1.08008,1.99023 v 0.002 h -0.002 c -0.44722,0.45635 -0.97146,0.75248 -1.5918,0.89843 h -0.002 c -0.64237,0.1606 -1.35171,0.24219 -2.12695,0.24219 -0.69732,0 -1.36802,-0.14659 -2.02148,-0.44531 l -0.002,-0.002 h -0.002 c -0.56327,-0.24594 -1.01159,-0.59308 -1.42969,-0.96875 l 1.37891,-1.00196 c 0.11668,0.18373 0.22868,0.37005 0.36914,0.53907 0.20126,0.25422 0.43477,0.47757 0.69922,0.66796 0.26686,0.19214 0.56262,0.34119 0.88086,0.44727 0.33359,0.11763 0.69527,0.17578 1.08203,0.17578 0.26543,0 0.51496,-0.0519 0.73828,-0.15625 0.24252,-0.0993 0.44743,-0.27468 0.59766,-0.5039 0.1619,-0.23249 0.27419,-0.52289 0.34765,-0.86524 v -0.004 c 0.0851,-0.35248 0.125,-0.77478 0.125,-1.27734 v -17.57812 z"
           id="path2057" />
        <path
           style="color:#000000;font-style:normal;font-variant:normal;font-weight:normal;font-stretch:normal;font-size:26.4584px;line-height:1.25;font-family:'Bangla MN';-inkscape-font-specification:'Bangla MN';font-variant-ligatures:normal;font-variant-position:normal;font-variant-caps:normal;font-variant-numeric:normal;font-variant-alternates:normal;font-variant-east-asian:normal;font-feature-settings:normal;font-variation-settings:normal;text-indent:0;text-align:start;text-decoration:none;text-decoration-line:none;text-decoration-style:solid;text-decoration-color:#000000;letter-spacing:normal;word-spacing:normal;text-transform:none;writing-mode:lr-tb;direction:ltr;text-orientation:mixed;dominant-baseline:auto;baseline-shift:baseline;text-anchor:start;white-space:normal;shape-padding:0;shape-margin:0;inline-size:0;clip-rule:nonzero;display:inline;overflow:visible;visibility:visible;isolation:auto;mix-blend-mode:normal;color-interpolation:sRGB;color-interpolation-filters:linearRGB;solid-color:#000000;solid-opacity:1;vector-effect:none;fill:#96a7ad;fill-opacity:1;fill-rule:nonzero;stroke:none;stroke-width:0.529167;stroke-linecap:butt;stroke-linejoin:miter;stroke-miterlimit:4;stroke-dasharray:none;stroke-dashoffset:0;stroke-opacity:1;color-rendering:auto;image-rendering:auto;shape-rendering:auto;text-rendering:auto;enable-background:accumulate;stop-color:#000000"
           d="m 149.48633,171.52539 c -0.76892,0 -1.48398,0.11265 -2.14063,0.33789 -0.65385,0.21455 -1.22714,0.5178 -1.71484,0.91211 l -0.002,0.002 c -0.47775,0.39467 -0.8561,0.87258 -1.12696,1.42383 -0.27329,0.54658 -0.41015,1.14394 -0.41015,1.7793 0,0.66817 0.11877,1.2662 0.36328,1.78711 l 0.002,0.004 v 0.002 c 0.24801,0.49601 0.57144,0.93726 0.96485,1.32031 v 0.002 l 0.002,0.002 c 0.39813,0.37772 0.84624,0.70789 1.34375,0.99218 l 0.002,0.002 h 0.002 c 0.48393,0.26664 0.97698,0.52467 1.48047,0.77148 h 0.002 0.002 c 0.49985,0.23522 0.99045,0.46598 1.4707,0.69141 0.46661,0.21901 0.87787,0.46192 1.23438,0.72461 l 0.004,0.002 0.002,0.002 c 0.3582,0.24799 0.63695,0.52618 0.84179,0.83789 v 0.004 l 0.002,0.002 c 0.20395,0.29743 0.30664,0.63916 0.30664,1.05469 0,0.24161 -0.0569,0.47901 -0.17774,0.7207 -0.11919,0.2286 -0.28906,0.43262 -0.51757,0.61719 l -0.002,0.002 -0.002,0.002 c -0.21838,0.18344 -0.48529,0.33296 -0.80274,0.45117 -9.1e-4,3.4e-4 -10e-4,0.002 -0.002,0.002 -0.31104,0.10569 -0.65036,0.16016 -1.02344,0.16016 -0.41113,0 -0.79059,-0.0471 -1.13867,-0.13867 -0.3333,-0.1 -0.66525,-0.25375 -0.99609,-0.46485 -7.8e-4,-5e-4 -0.001,-10e-4 -0.002,-0.002 -0.32151,-0.22135 -0.6422,-0.50081 -0.96093,-0.83789 -0.32375,-0.35231 -0.66587,-0.77872 -1.02344,-1.28125 l -0.17187,-0.24219 -1.62305,1.46485 0.14844,0.19335 c 0.46183,0.60239 0.93886,1.09477 1.43164,1.47461 0.48497,0.37384 0.97187,0.66909 1.46484,0.88477 l 0.004,0.002 h 0.002 c 0.48856,0.20357 0.97508,0.342 1.45898,0.41407 0.48206,0.0703 0.95156,0.10546 1.40625,0.10546 0.99152,0 1.86031,-0.11896 2.60938,-0.36523 0.74148,-0.24377 1.36779,-0.57762 1.86914,-1.00586 0.50808,-0.4355 0.8931,-0.95043 1.14453,-1.53711 v -0.002 c 0.24915,-0.59172 0.37305,-1.22696 0.37305,-1.89649 0,-0.66144 -0.13518,-1.25472 -0.41211,-1.76757 l -0.002,-0.002 c -0.25995,-0.49834 -0.60867,-0.93589 -1.04297,-1.30859 -0.42855,-0.37753 -0.91499,-0.70896 -1.46094,-0.99219 h -0.002 c -0.52455,-0.27706 -1.06531,-0.53405 -1.61914,-0.77148 l -0.002,-0.002 c -0.53807,-0.23478 -1.07125,-0.4644 -1.59961,-0.68945 l -0.002,-0.002 c -0.50559,-0.21955 -0.95728,-0.45652 -1.35352,-0.71094 l -0.004,-0.002 c -0.38914,-0.25994 -0.69625,-0.54462 -0.92969,-0.84961 -1.1e-4,-1.6e-4 -0.002,1.5e-4 -0.002,0 -0.20955,-0.28648 -0.31446,-0.61441 -0.31446,-1.01563 0,-0.22817 0.0555,-0.43813 0.16993,-0.64453 0.12786,-0.2124 0.29625,-0.39425 0.51367,-0.55078 l 0.002,-0.002 c 0.22567,-0.16492 0.4992,-0.29394 0.82617,-0.38477 l 0.004,-0.002 h 0.002 c 0.32396,-0.099 0.69048,-0.15039 1.09961,-0.15039 0.74257,0 1.43075,0.21147 2.08789,0.64648 l 0.002,0.002 h 0.002 c 0.66308,0.42364 1.27524,1.08269 1.82812,1.98829 l 0.16407,0.27148 1.52539,-1.36133 -0.1543,-0.19531 c -0.46789,-0.5973 -0.91373,-1.08382 -1.3418,-1.46094 -0.42622,-0.3851 -0.86264,-0.686 -1.31054,-0.89453 h -0.002 c -0.43259,-0.2058 -0.8777,-0.34538 -1.33398,-0.41797 -0.44684,-0.0711 -0.92562,-0.10742 -1.4375,-0.10742 z m 0,0.5293 c 0.48767,0 0.93996,0.0335 1.35547,0.0996 0.40546,0.0645 0.80139,0.18928 1.1914,0.375 l 0.002,0.002 c 0.39314,0.18286 0.7882,0.45086 1.18359,0.80859 h 0.002 v 0.002 c 0.34298,0.30215 0.72014,0.73102 1.10742,1.20703 l -0.71289,0.63672 c -0.53626,-0.80921 -1.11352,-1.49892 -1.78125,-1.92578 -1.7e-4,-1.2e-4 1.7e-4,-0.002 0,-0.002 -0.73333,-0.48447 -1.53349,-0.73242 -2.37695,-0.73242 -0.45036,0 -0.86646,0.0568 -1.24609,0.17188 -8.9e-4,2.4e-4 -0.001,0.002 -0.002,0.002 -0.37688,0.10498 -0.7112,0.25836 -0.99414,0.46484 -0.27176,0.19567 -0.49421,0.43437 -0.66015,0.71094 l -0.002,0.002 -0.002,0.004 c -0.15777,0.28173 -0.24023,0.58972 -0.24023,0.9082 0,0.49871 0.1412,0.95297 0.41992,1.33203 l 0.002,0.002 v 0.002 c 0.27525,0.35995 0.63271,0.68483 1.06446,0.97266 h 0.002 v 0.002 c 0.42541,0.27347 0.90491,0.52363 1.43555,0.75391 v 0.002 h 0.002 c 0.52843,0.22507 1.06133,0.45457 1.59961,0.68945 h 0.002 c 0.5423,0.23242 1.06909,0.48487 1.58203,0.75586 h 0.002 c 0.51177,0.26537 0.96321,0.57264 1.35742,0.91992 l 0.002,0.002 h 0.002 c 0.38716,0.33184 0.69242,0.71568 0.92188,1.15625 v 0.002 l 0.002,0.002 c 0.23133,0.42707 0.34961,0.9282 0.34961,1.51953 0,0.6044 -0.1108,1.16599 -0.33203,1.69141 -0.21895,0.50981 -0.54848,0.95477 -1,1.3418 -0.43939,0.37531 -1.00021,0.67965 -1.68945,0.90625 -0.68165,0.2241 -1.49656,0.33789 -2.44532,0.33789 -0.42663,0 -0.87015,-0.0329 -1.32812,-0.0996 h -0.002 c -0.43532,-0.065 -0.878,-0.18977 -1.32813,-0.37696 l -0.004,-0.002 c -0.44655,-0.19578 -0.89704,-0.468 -1.35156,-0.81836 -0.39084,-0.30127 -0.77916,-0.72637 -1.16406,-1.20117 l 0.80859,-0.73242 c 0.30035,0.4068 0.59741,0.79505 0.88086,1.10351 h 0.002 v 0.002 c 0.34414,0.36439 0.69768,0.67048 1.05859,0.91797 l 0.002,0.002 0.004,0.004 c 0.3713,0.23722 0.75223,0.41382 1.14062,0.52929 l 0.004,0.002 h 0.004 c 0.39668,0.10438 0.82222,0.15625 1.27343,0.15625 0.42759,0 0.83017,-0.0635 1.20313,-0.19141 h 0.002 l 0.004,-0.002 c 0.36673,-0.13622 0.68633,-0.31781 0.95703,-0.54493 h 0.002 c 0.27772,-0.22522 0.49808,-0.48764 0.65235,-0.78515 l 0.002,-0.002 v -0.002 c 0.15353,-0.30706 0.23437,-0.63027 0.23437,-0.95703 0,-0.50339 -0.13238,-0.96214 -0.39648,-1.34961 -0.24593,-0.37424 -0.57626,-0.70319 -0.98242,-0.98437 -0.38664,-0.28414 -0.82547,-0.54105 -1.31641,-0.77149 -0.47879,-0.22474 -0.96654,-0.45496 -1.46484,-0.68945 l -0.004,-0.002 c -0.49335,-0.24192 -0.97723,-0.49284 -1.45117,-0.75391 l -0.004,-0.002 c -0.45999,-0.26324 -0.87189,-0.56879 -1.23632,-0.91407 -0.3507,-0.34146 -0.63524,-0.73207 -0.85743,-1.17578 -4.1e-4,-8.3e-4 -0.002,-0.001 -0.002,-0.002 -0.20471,-0.43835 -0.31055,-0.95322 -0.31055,-1.55664 0,-0.56018 0.11724,-1.07042 0.35352,-1.54297 v -0.002 h 0.002 c 0.23863,-0.48643 0.5652,-0.9005 0.98828,-1.25 0.43303,-0.34969 0.9473,-0.62358 1.54688,-0.82032 h 0.002 c 0.59671,-0.20512 1.25343,-0.31054 1.97266,-0.31054 z"
           id="path2059" />
        <circle
           style="fill:none;fill-opacity:1;stroke:#ed553b;stroke-width:0.187064;stroke-miterlimit:4;stroke-dasharray:none;stroke-opacity:1"
           id="path4972-6-0"
           cx="30.852259"
           cy="179.28716"
           r="6.2362299" />
        <circle
           style="fill:none;fill-opacity:0.66;stroke:#030f27;stroke-width:0.187064;stroke-miterlimit:4;stroke-dasharray:none;stroke-opacity:0.659919"
           id="path4972-1-8-4"
           cx="41.829308"
           cy="179.28716"
           r="3.7120419" />
        <circle
           style="fill:none;fill-opacity:0.66;stroke:#030f27;stroke-width:0.187064;stroke-miterlimit:4;stroke-dasharray:none;stroke-opacity:0.659919"
           id="path4972-1-5-2-0"
           cx="19.963577"
           cy="179.28716"
           r="3.7120419" />
        <circle
           style="fill:none;fill-opacity:0.66;stroke:#030f27;stroke-width:0.187064;stroke-miterlimit:4;stroke-dasharray:none;stroke-opacity:0.659919"
           id="path4972-1-54-39-8"
           cx="30.940657"
           cy="168.3985"
           r="3.7120419" />
        <circle
           style="fill:none;fill-opacity:0.66;stroke:#030f27;stroke-width:0.187064;stroke-miterlimit:4;stroke-dasharray:none;stroke-opacity:0.659919"
           id="path4972-1-6-0-5"
           cx="30.940657"
           cy="190.26419"
           r="3.7120419" />
        <circle
           style="fill:#96a7ad;fill-opacity:0.663968;stroke:#030f27;stroke-width:0.187064;stroke-miterlimit:4;stroke-dasharray:none;stroke-opacity:0.659919"
           id="path4972-1-56-3-5"
           cx="-94.044029"
           cy="148.64386"
           r="2.2941904"
           transform="rotate(-45)" />
        <circle
           style="fill:#96a7ad;fill-opacity:0.663968;stroke:#030f27;stroke-width:0.187064;stroke-miterlimit:4;stroke-dasharray:none;stroke-opacity:0.659919"
           id="path4972-1-5-9-8-9"
           cx="-115.90977"
           cy="148.64386"
           r="2.2941904"
           transform="rotate(-45)" />
        <circle
           style="fill:#96a7ad;fill-opacity:0.663968;stroke:#030f27;stroke-width:0.187064;stroke-miterlimit:4;stroke-dasharray:none;stroke-opacity:0.659919"
           id="path4972-1-54-3-3-57"
           cx="-104.93268"
           cy="137.7552"
           r="2.2941904"
           transform="rotate(-45)" />
        <circle
           style="fill:#96a7ad;fill-opacity:0.663968;stroke:#030f27;stroke-width:0.187064;stroke-miterlimit:4;stroke-dasharray:none;stroke-opacity:0.659919"
           id="path4972-1-6-7-1-7"
           cx="-104.93268"
           cy="159.62086"
           r="2.2941904"
           transform="rotate(-45)" />
        <circle
           style="fill:#96a7ad;fill-opacity:0.663968;stroke:none;stroke-width:0.13006;stroke-miterlimit:4;stroke-dasharray:none;stroke-opacity:0.659919"
           id="path4972-1-56-3-5-4"
           cx="-55.206383"
           cy="179.92952"
           r="1.5950818"
           transform="rotate(-45)" />
        <circle
           style="fill:#96a7ad;fill-opacity:0.663968;stroke:none;stroke-width:0.13006;stroke-miterlimit:4;stroke-dasharray:none;stroke-opacity:0.659919"
           id="path4972-1-56-3-5-4-1"
           cx="-39.122379"
           cy="224.03235"
           r="1.5950818"
           transform="rotate(-45)" />
        <circle
           style="fill:#96a7ad;fill-opacity:0.663968;stroke:none;stroke-width:0.13006;stroke-miterlimit:4;stroke-dasharray:none;stroke-opacity:0.659919"
           id="path4972-1-56-3-5-4-2"
           cx="-19.84136"
           cy="215.28827"
           r="1.5950818"
           transform="rotate(-45)" />
      </g>
    </g>
  </g>
</svg>
