<?xml version="1.0" encoding="UTF-8" standalone="no"?>
<svg
   xmlns:dc="http://purl.org/dc/elements/1.1/"
   xmlns:cc="http://creativecommons.org/ns#"
   xmlns:rdf="http://www.w3.org/1999/02/22-rdf-syntax-ns#"
   xmlns:svg="http://www.w3.org/2000/svg"
   xmlns="http://www.w3.org/2000/svg"
   xmlns:sodipodi="http://sodipodi.sourceforge.net/DTD/sodipodi-0.dtd"
   xmlns:inkscape="http://www.inkscape.org/namespaces/inkscape"
   sodipodi:docname="remove-icon.svg"
   inkscape:version="1.0.1 (3bc2e813f5, 2020-09-07)"
   id="svg8"
   version="1.1"
   viewBox="0 0 13.640093 13.640094"
   height="13.640094mm"
   width="13.640093mm">
  <defs
     id="defs2" />
  <sodipodi:namedview
     fit-margin-left="0.5"
     fit-margin-bottom="0.5"
     fit-margin-right="0.5"
     fit-margin-top="0.5"
     inkscape:lockguides="true"
     inkscape:window-maximized="1"
     inkscape:window-y="0"
     inkscape:window-x="0"
     inkscape:window-height="1139"
     inkscape:window-width="1920"
     showgrid="true"
     inkscape:document-rotation="0"
     inkscape:current-layer="layer1"
     inkscape:document-units="mm"
     inkscape:cy="26.151637"
     inkscape:cx="19.463717"
     inkscape:zoom="11.089324"
     inkscape:pageshadow="2"
     inkscape:pageopacity="0.0"
     borderopacity="1.0"
     bordercolor="#666666"
     pagecolor="#ffffff"
     id="base">
    <inkscape:grid
       originy="-114.88835"
       originx="-169.12782"
       id="grid837"
       type="xygrid" />
  </sodipodi:namedview>
  <metadata
     id="metadata5">
    <rdf:RDF>
      <cc:Work
         rdf:about="">
        <dc:format>image/svg+xml</dc:format>
        <dc:type
           rdf:resource="http://purl.org/dc/dcmitype/StillImage" />
        <dc:title />
      </cc:Work>
    </rdf:RDF>
  </metadata>
  <g
     transform="translate(-169.12783,-114.88835)"
     id="layer1"
     inkscape:groupmode="layer"
     inkscape:label="Layer 1">
    <path
       id="path988"
       style="fill:#bfbf18;fill-opacity:0.66000003;stroke-width:0.999999;stroke-linecap:round;stroke-linejoin:round;stroke-dasharray:0.999999, 3;paint-order:stroke fill markers"
       d="M 25.552734 2.7773438 A 23.000001 23.000001 0 0 0 8.4765625 10.621094 A 23.000001 23.000001 0 0 0 10.287109 42.779297 A 23.000001 23.000001 0 0 0 42.474609 41.591797 L 43.652344 40.25 A 23.000001 23.000001 0 0 0 40.59375 8.1855469 A 23.000001 23.000001 0 0 0 25.552734 2.7773438 z M 11.392578 20.855469 L 40.160156 20.855469 C 41.822128 20.855469 43.160156 22.193459 43.160156 23.855469 L 43.160156 27.697266 C 43.160156 29.359275 41.822128 30.697266 40.160156 30.697266 L 11.392578 30.697266 C 9.7305687 30.697266 8.3925781 29.359275 8.3925781 27.697266 L 8.3925781 23.855469 C 8.3925781 22.193459 9.7305687 20.855469 11.392578 20.855469 z "
       transform="matrix(0.26458333,0,0,0.26458333,169.12783,114.88835)" />
  </g>
</svg>
