<?xml version="1.0" encoding="UTF-8" standalone="no"?>
<svg
   xmlns:dc="http://purl.org/dc/elements/1.1/"
   xmlns:cc="http://creativecommons.org/ns#"
   xmlns:rdf="http://www.w3.org/1999/02/22-rdf-syntax-ns#"
   xmlns:svg="http://www.w3.org/2000/svg"
   xmlns="http://www.w3.org/2000/svg"
   xmlns:sodipodi="http://sodipodi.sourceforge.net/DTD/sodipodi-0.dtd"
   xmlns:inkscape="http://www.inkscape.org/namespaces/inkscape"
   width="11.622626mm"
   height="12.815mm"
   viewBox="0 0 11.622627 12.815"
   version="1.1"
   id="svg8"
   inkscape:version="1.0.2 (e86c8708, 2021-01-15)"
   sodipodi:docname="search-icon.svg">
  <defs
     id="defs2">
    <inkscape:path-effect
       effect="powerclip"
       id="path-effect6606"
       is_visible="true"
       lpeversion="1"
       inverse="true"
       flatten="false"
       hide_clip="false"
       message="Use fill-rule evenodd on &lt;b&gt;fill and stroke&lt;/b&gt; dialog if no flatten result after convert clip to paths." />
    <inkscape:path-effect
       effect="powerclip"
       id="path-effect6594"
       is_visible="true"
       lpeversion="1"
       inverse="true"
       flatten="false"
       hide_clip="false"
       message="Use fill-rule evenodd on &lt;b&gt;fill and stroke&lt;/b&gt; dialog if no flatten result after convert clip to paths." />
    <inkscape:path-effect
       effect="powerclip"
       id="path-effect6544"
       is_visible="true"
       lpeversion="1"
       inverse="true"
       flatten="false"
       hide_clip="false"
       message="Use fill-rule evenodd on &lt;b&gt;fill and stroke&lt;/b&gt; dialog if no flatten result after convert clip to paths." />
    <clipPath
       clipPathUnits="userSpaceOnUse"
       id="clipPath6540">
      <path
         id="lpe_path-effect6544"
         style="color:#000000;font-style:normal;font-variant:normal;font-weight:normal;font-stretch:normal;font-size:medium;line-height:normal;font-family:sans-serif;font-variant-ligatures:normal;font-variant-position:normal;font-variant-caps:normal;font-variant-numeric:normal;font-variant-alternates:normal;font-variant-east-asian:normal;font-feature-settings:normal;font-variation-settings:normal;text-indent:0;text-align:start;text-decoration:none;text-decoration-line:none;text-decoration-style:solid;text-decoration-color:#000000;letter-spacing:normal;word-spacing:normal;text-transform:none;writing-mode:lr-tb;direction:ltr;text-orientation:mixed;dominant-baseline:auto;baseline-shift:baseline;text-anchor:start;white-space:normal;shape-padding:0;shape-margin:0;inline-size:0;clip-rule:nonzero;display:inline;overflow:visible;visibility:visible;isolation:auto;mix-blend-mode:normal;color-interpolation:sRGB;color-interpolation-filters:linearRGB;solid-color:#000000;solid-opacity:1;vector-effect:none;fill:#e68a00;fill-opacity:1;fill-rule:nonzero;stroke:#e68a00;stroke-width:0.0808821;stroke-linecap:butt;stroke-linejoin:miter;stroke-miterlimit:4;stroke-dasharray:none;stroke-dashoffset:0;stroke-opacity:1;color-rendering:auto;image-rendering:auto;shape-rendering:auto;text-rendering:auto;enable-background:accumulate;stop-color:#000000;stop-opacity:1"
         class="powerclip"
         d="m 155.36994,109.79873 h 21.81499 v 21.81499 h -21.81499 z m 14.47084,9.66881 c 0.13448,-0.3344 0.12377,-0.70343 -0.0344,-1.03414 -0.15793,-0.33038 -0.44511,-0.58309 -0.80073,-0.70967 -0.081,-0.34899 -0.30365,-0.65262 -0.62683,-0.84809 -0.23207,-0.14038 -0.50011,-0.21461 -0.77503,-0.21461 -0.10335,0 -0.20596,0.0104 -0.30659,0.031 -0.2684,-0.25255 -0.63067,-0.39503 -1.01451,-0.39503 h -0.0105 c -0.38381,0 -0.74612,0.14248 -1.01455,0.39503 -0.10061,-0.0205 -0.20324,-0.031 -0.30654,-0.031 -0.27497,0 -0.54294,0.0743 -0.77506,0.21461 -0.32322,0.19547 -0.54582,0.4991 -0.62683,0.84809 -0.35557,0.12658 -0.64277,0.37929 -0.80073,0.70967 -0.15807,0.3307 -0.16878,0.69974 -0.0343,1.03414 -0.22286,0.28972 -0.31501,0.64891 -0.25406,1.00719 0.0609,0.35813 0.26783,0.67252 0.57587,0.88215 -0.0175,0.35703 0.11422,0.7045 0.37312,0.97229 0.25622,0.26504 0.61564,0.42337 0.99481,0.44037 0.0723,0.11704 0.16195,0.22192 0.26552,0.31224 v 1.75495 c 0,0.15394 0.1248,0.27874 0.27875,0.27874 0.15396,0 0.27875,-0.1248 0.27875,-0.27874 v -1.45459 c 0.0166,0.005 0.0331,0.01 0.0499,0.0137 0.12075,0.0302 0.2448,0.0455 0.36872,0.0455 0.25378,0 0.41447,-0.0623 0.63184,-0.18115 0.21736,0.11884 0.37807,0.18115 0.63187,0.18115 0.12392,0 0.24797,-0.0153 0.3687,-0.0455 0.0168,-0.004 0.0334,-0.009 0.0499,-0.0137 v 1.45459 c 0,0.15394 0.12478,0.27874 0.27871,0.27874 0.15396,0 0.27877,-0.1248 0.27877,-0.27874 v -1.75495 c 0.10357,-0.0903 0.19322,-0.1952 0.2655,-0.31224 0.37921,-0.017 0.73863,-0.17536 0.99489,-0.44037 0.25884,-0.26779 0.39061,-0.61523 0.3731,-0.97229 0.30806,-0.20963 0.51496,-0.52402 0.57589,-0.88215 0.0609,-0.35826 -0.0312,-0.71744 -0.25405,-1.00719 z m -0.19117,0.9315 2.3e-4,9e-5 c 0.0453,-0.26653 -0.0412,-0.53551 -0.2376,-0.738 l -0.11611,-0.11972 0.0802,-0.14618 c 0.13237,-0.24099 0.14071,-0.52058 0.0229,-0.76703 -0.12037,-0.25181 -0.35597,-0.43754 -0.64629,-0.50954 l -0.15264,-0.0379 -0.0174,-0.15632 c -0.0302,-0.27104 -0.18958,-0.51246 -0.43749,-0.66239 -0.16161,-0.0977 -0.34879,-0.14941 -0.54135,-0.14941 -0.10628,0 -0.21147,0.0156 -0.31259,0.0463 l -0.14032,0.0426 -0.096,-0.11078 c -0.18202,-0.20998 -0.45065,-0.33346 -0.74099,-0.34146 l 3e-5,1.4e-4 c -0.0123,-4.4e-4 -0.0244,-7.3e-4 -0.0366,-8.1e-4 -0.0123,6e-5 -0.0245,3.7e-4 -0.0366,8.1e-4 v -1.4e-4 c -0.29026,0.008 -0.55895,0.13149 -0.74095,0.34146 l -0.096,0.11078 -0.14028,-0.0426 c -0.10114,-0.0307 -0.20629,-0.0463 -0.31257,-0.0463 -0.19254,0 -0.37974,0.0517 -0.54137,0.14941 -0.24789,0.14993 -0.40728,0.39135 -0.43748,0.66239 l -0.0174,0.15632 -0.15267,0.0379 c -0.29034,0.072 -0.5259,0.25773 -0.64627,0.50954 -0.11778,0.24645 -0.10946,0.52604 0.0229,0.76703 l 0.0802,0.14618 -0.11612,0.11972 c -0.19625,0.20243 -0.28295,0.47142 -0.23755,0.73794 0.0457,0.26903 0.21965,0.50245 0.47713,0.64043 l 0.14342,0.0768 -0.0275,0.16039 c -0.0459,0.26718 0.0399,0.53639 0.23544,0.73859 0.18691,0.19333 0.45601,0.30421 0.73826,0.30421 0.0181,0 0.0363,-0.001 0.0543,-0.002 l 0.15044,-0.007 0.0647,0.13601 c 0.12027,0.25256 0.35274,0.4499 0.64474,0.5111 0.4232,0.0886 0.83491,-0.11045 0.88821,-0.13755 l 0.003,-0.002 0.003,0.002 c 0.0533,0.0271 0.46507,0.22621 0.88823,0.13751 0.29202,-0.0611 0.52449,-0.25853 0.64478,-0.5111 l 0.0647,-0.13599 0.1504,0.007 c 0.018,0.002 0.0362,0.002 0.0542,0.002 0.28228,0 0.55143,-0.11087 0.73834,-0.30421 0.19542,-0.2022 0.28132,-0.4714 0.23542,-0.7386 l -0.0276,-0.16039 0.14344,-0.0768 c 0.25748,-0.13799 0.43143,-0.3714 0.47713,-0.64043 z" />
    </clipPath>
    <clipPath
       clipPathUnits="userSpaceOnUse"
       id="clipPath6540-5">
      <path
         id="lpe_path-effect6544-3"
         style="color:#000000;font-style:normal;font-variant:normal;font-weight:normal;font-stretch:normal;font-size:medium;line-height:normal;font-family:sans-serif;font-variant-ligatures:normal;font-variant-position:normal;font-variant-caps:normal;font-variant-numeric:normal;font-variant-alternates:normal;font-variant-east-asian:normal;font-feature-settings:normal;font-variation-settings:normal;text-indent:0;text-align:start;text-decoration:none;text-decoration-line:none;text-decoration-style:solid;text-decoration-color:#000000;letter-spacing:normal;word-spacing:normal;text-transform:none;writing-mode:lr-tb;direction:ltr;text-orientation:mixed;dominant-baseline:auto;baseline-shift:baseline;text-anchor:start;white-space:normal;shape-padding:0;shape-margin:0;inline-size:0;clip-rule:nonzero;display:inline;overflow:visible;visibility:visible;isolation:auto;mix-blend-mode:normal;color-interpolation:sRGB;color-interpolation-filters:linearRGB;solid-color:#000000;solid-opacity:1;vector-effect:none;fill:#e68a00;fill-opacity:1;fill-rule:nonzero;stroke:#e68a00;stroke-width:0.0808821;stroke-linecap:butt;stroke-linejoin:miter;stroke-miterlimit:4;stroke-dasharray:none;stroke-dashoffset:0;stroke-opacity:1;color-rendering:auto;image-rendering:auto;shape-rendering:auto;text-rendering:auto;enable-background:accumulate;stop-color:#000000;stop-opacity:1"
         class="powerclip"
         d="m 155.36994,109.79873 h 21.81499 v 21.81499 h -21.81499 z m 14.47084,9.66881 c 0.13448,-0.3344 0.12377,-0.70343 -0.0344,-1.03414 -0.15793,-0.33038 -0.44511,-0.58309 -0.80073,-0.70967 -0.081,-0.34899 -0.30365,-0.65262 -0.62683,-0.84809 -0.23207,-0.14038 -0.50011,-0.21461 -0.77503,-0.21461 -0.10335,0 -0.20596,0.0104 -0.30659,0.031 -0.2684,-0.25255 -0.63067,-0.39503 -1.01451,-0.39503 h -0.0105 c -0.38381,0 -0.74612,0.14248 -1.01455,0.39503 -0.10061,-0.0205 -0.20324,-0.031 -0.30654,-0.031 -0.27497,0 -0.54294,0.0743 -0.77506,0.21461 -0.32322,0.19547 -0.54582,0.4991 -0.62683,0.84809 -0.35557,0.12658 -0.64277,0.37929 -0.80073,0.70967 -0.15807,0.3307 -0.16878,0.69974 -0.0343,1.03414 -0.22286,0.28972 -0.31501,0.64891 -0.25406,1.00719 0.0609,0.35813 0.26783,0.67252 0.57587,0.88215 -0.0175,0.35703 0.11422,0.7045 0.37312,0.97229 0.25622,0.26504 0.61564,0.42337 0.99481,0.44037 0.0723,0.11704 0.16195,0.22192 0.26552,0.31224 v 1.75495 c 0,0.15394 0.1248,0.27874 0.27875,0.27874 0.15396,0 0.27875,-0.1248 0.27875,-0.27874 v -1.45459 c 0.0166,0.005 0.0331,0.01 0.0499,0.0137 0.12075,0.0302 0.2448,0.0455 0.36872,0.0455 0.25378,0 0.41447,-0.0623 0.63184,-0.18115 0.21736,0.11884 0.37807,0.18115 0.63187,0.18115 0.12392,0 0.24797,-0.0153 0.3687,-0.0455 0.0168,-0.004 0.0334,-0.009 0.0499,-0.0137 v 1.45459 c 0,0.15394 0.12478,0.27874 0.27871,0.27874 0.15396,0 0.27877,-0.1248 0.27877,-0.27874 v -1.75495 c 0.10357,-0.0903 0.19322,-0.1952 0.2655,-0.31224 0.37921,-0.017 0.73863,-0.17536 0.99489,-0.44037 0.25884,-0.26779 0.39061,-0.61523 0.3731,-0.97229 0.30806,-0.20963 0.51496,-0.52402 0.57589,-0.88215 0.0609,-0.35826 -0.0312,-0.71744 -0.25405,-1.00719 z m -0.19117,0.9315 2.3e-4,9e-5 c 0.0453,-0.26653 -0.0412,-0.53551 -0.2376,-0.738 l -0.11611,-0.11972 0.0802,-0.14618 c 0.13237,-0.24099 0.14071,-0.52058 0.0229,-0.76703 -0.12037,-0.25181 -0.35597,-0.43754 -0.64629,-0.50954 l -0.15264,-0.0379 -0.0174,-0.15632 c -0.0302,-0.27104 -0.18958,-0.51246 -0.43749,-0.66239 -0.16161,-0.0977 -0.34879,-0.14941 -0.54135,-0.14941 -0.10628,0 -0.21147,0.0156 -0.31259,0.0463 l -0.14032,0.0426 -0.096,-0.11078 c -0.18202,-0.20998 -0.45065,-0.33346 -0.74099,-0.34146 l 3e-5,1.4e-4 c -0.0123,-4.4e-4 -0.0244,-7.3e-4 -0.0366,-8.1e-4 -0.0123,6e-5 -0.0245,3.7e-4 -0.0366,8.1e-4 v -1.4e-4 c -0.29026,0.008 -0.55895,0.13149 -0.74095,0.34146 l -0.096,0.11078 -0.14028,-0.0426 c -0.10114,-0.0307 -0.20629,-0.0463 -0.31257,-0.0463 -0.19254,0 -0.37974,0.0517 -0.54137,0.14941 -0.24789,0.14993 -0.40728,0.39135 -0.43748,0.66239 l -0.0174,0.15632 -0.15267,0.0379 c -0.29034,0.072 -0.5259,0.25773 -0.64627,0.50954 -0.11778,0.24645 -0.10946,0.52604 0.0229,0.76703 l 0.0802,0.14618 -0.11612,0.11972 c -0.19625,0.20243 -0.28295,0.47142 -0.23755,0.73794 0.0457,0.26903 0.21965,0.50245 0.47713,0.64043 l 0.14342,0.0768 -0.0275,0.16039 c -0.0459,0.26718 0.0399,0.53639 0.23544,0.73859 0.18691,0.19333 0.45601,0.30421 0.73826,0.30421 0.0181,0 0.0363,-0.001 0.0543,-0.002 l 0.15044,-0.007 0.0647,0.13601 c 0.12027,0.25256 0.35274,0.4499 0.64474,0.5111 0.4232,0.0886 0.83491,-0.11045 0.88821,-0.13755 l 0.003,-0.002 0.003,0.002 c 0.0533,0.0271 0.46507,0.22621 0.88823,0.13751 0.29202,-0.0611 0.52449,-0.25853 0.64478,-0.5111 l 0.0647,-0.13599 0.1504,0.007 c 0.018,0.002 0.0362,0.002 0.0542,0.002 0.28228,0 0.55143,-0.11087 0.73834,-0.30421 0.19542,-0.2022 0.28132,-0.4714 0.23542,-0.7386 l -0.0276,-0.16039 0.14344,-0.0768 c 0.25748,-0.13799 0.43143,-0.3714 0.47713,-0.64043 z" />
    </clipPath>
    <clipPath
       clipPathUnits="userSpaceOnUse"
       id="clipPath6590">
      <path
         style="display:none;fill:#e68a00;fill-opacity:1;stroke-width:0.0209963"
         d="m 167.88278,120.03813 c 0.0195,-0.0608 0.0286,-0.12413 0.0273,-0.18866 -0.003,-0.15703 -0.0687,-0.30366 -0.18424,-0.41285 -0.0871,-0.0824 -0.19481,-0.13649 -0.31283,-0.15728 -0.10071,-0.20149 -0.3115,-0.33031 -0.54391,-0.33031 -0.005,0 -0.009,1e-5 -0.0134,1.6e-4 -0.0404,8.2e-4 -0.0805,0.006 -0.11947,0.0141 -0.11426,-0.12406 -0.27639,-0.19466 -0.4492,-0.19466 l -0.009,9e-5 -0.0109,-9e-5 c -0.1725,0 -0.33456,0.0706 -0.44894,0.19466 -0.039,-0.008 -0.079,-0.0133 -0.11943,-0.0141 -0.23822,-0.006 -0.45457,0.12464 -0.55729,0.33017 -0.1181,0.0208 -0.22585,0.0749 -0.31295,0.15728 -0.11541,0.10927 -0.18079,0.25589 -0.18413,0.41285 -0.002,0.0645 0.008,0.12772 0.0273,0.1887 -0.24851,0.12428 -0.47719,0.34293 -0.61732,0.59197 -0.10687,0.18997 -0.10668,0.43108 4.5e-4,0.61433 0.0834,0.14269 0.21778,0.22454 0.3687,0.22454 0.16707,0 0.40955,-0.10041 0.64776,-0.55704 0.009,0.0463 0.0187,0.0917 0.0283,0.13474 0.08,0.35727 0.22848,0.85453 0.48147,1.19458 0.19858,0.26689 0.43284,0.40217 0.69623,0.40217 0.26339,0 0.49766,-0.13528 0.69627,-0.40217 0.25315,-0.34028 0.40159,-0.83743 0.48155,-1.1946 0.01,-0.0435 0.0192,-0.0889 0.0282,-0.13473 0.23834,0.4566 0.48076,0.55701 0.64783,0.55705 0.15086,0 0.28525,-0.0818 0.36874,-0.22448 0.10718,-0.18327 0.10733,-0.42444 4.3e-4,-0.61437 -0.14011,-0.24902 -0.36882,-0.4677 -0.61746,-0.59205 z m -3.2641,0.92576 c -0.0859,0.10967 -0.15728,0.14872 -0.19537,0.14872 -0.0273,0 -0.0483,-0.0261 -0.0611,-0.048 -0.0364,-0.0623 -0.0472,-0.17152 0.002,-0.25983 0.16052,-0.28534 0.41734,-0.44422 0.57045,-0.49092 -0.0984,0.28911 -0.20471,0.50753 -0.31652,0.64999 z m 2.87655,-0.95018 c 0,0 -0.0822,0.11808 -0.2974,0.0879 0.0459,0.19203 -0.14355,1.53691 -0.57775,2.00874 -0.10933,0.11897 -0.22153,0.17679 -0.34295,0.17679 -0.12128,0 -0.23346,-0.0578 -0.343,-0.17679 -0.43484,-0.47254 -0.61034,-1.98882 -0.61034,-1.98882 0,0 -0.32326,-0.006 -0.32326,-0.26447 0,-0.12732 0.11453,-0.23081 0.24931,-0.23081 l 0.15835,0.006 0.0336,-0.14269 c 0.0252,-0.10668 0.12758,-0.18406 0.24354,-0.18406 l 0.006,8e-5 c 0.0399,8.2e-4 0.078,0.0104 0.11316,0.0282 l 0.15755,0.0805 0.0815,-0.15703 c 0.0424,-0.0815 0.12838,-0.13216 0.2245,-0.13216 l 0.009,1.5e-4 0.01,-1.7e-4 c 0.096,0 0.18195,0.0506 0.22422,0.13218 l 0.0816,0.15703 0.15743,-0.0804 c 0.0353,-0.0179 0.0734,-0.0275 0.11338,-0.0283 l 0.006,-8e-5 c 0.11601,0 0.21838,0.0774 0.24341,0.18403 l 0.0336,0.1427 0.14695,-0.006 0.0115,-3.2e-4 c 0.13472,0 0.24658,0.10353 0.24933,0.23079 8.2e-4,0.0572 -0.0197,0.11283 -0.0586,0.15667 z m 0.69684,1.05093 c -0.0128,0.0219 -0.0338,0.048 -0.0611,0.048 -0.0381,0 -0.10943,-0.0391 -0.19541,-0.14878 -0.1117,-0.14238 -0.21809,-0.3608 -0.3165,-0.6499 0.15315,0.0468 0.40989,0.20558 0.57047,0.49096 0.0497,0.0882 0.0389,0.19747 0.002,0.25973 z"
         id="path6592" />
    </clipPath>
    <clipPath
       clipPathUnits="userSpaceOnUse"
       id="clipPath6598">
      <g
         id="g6604"
         clip-path="url(#clipPath6540-5)"
         style="display:block;opacity:1">
        <path
           style="color:#000000;font-style:normal;font-variant:normal;font-weight:normal;font-stretch:normal;font-size:medium;line-height:normal;font-family:sans-serif;font-variant-ligatures:normal;font-variant-position:normal;font-variant-caps:normal;font-variant-numeric:normal;font-variant-alternates:normal;font-variant-east-asian:normal;font-feature-settings:normal;font-variation-settings:normal;text-indent:0;text-align:start;text-decoration:none;text-decoration-line:none;text-decoration-style:solid;text-decoration-color:#000000;letter-spacing:normal;word-spacing:normal;text-transform:none;writing-mode:lr-tb;direction:ltr;text-orientation:mixed;dominant-baseline:auto;baseline-shift:baseline;text-anchor:start;white-space:normal;shape-padding:0;shape-margin:0;inline-size:0;clip-rule:nonzero;display:inline;overflow:visible;visibility:visible;isolation:auto;mix-blend-mode:normal;color-interpolation:sRGB;color-interpolation-filters:linearRGB;solid-color:#000000;solid-opacity:1;vector-effect:none;fill:#bfbf18;fill-opacity:1;fill-rule:nonzero;stroke:none;stroke-width:0.770806;stroke-linecap:round;stroke-linejoin:round;stroke-miterlimit:4;stroke-dasharray:none;stroke-dashoffset:0;stroke-opacity:1;paint-order:normal;color-rendering:auto;image-rendering:auto;shape-rendering:auto;text-rendering:auto;enable-background:accumulate;stop-color:#000000;stop-opacity:1"
           d="m 171.79953,120.70622 c 0,3.04977 -2.47232,5.5221 -5.52209,5.5221 -3.04977,0 -5.5221,-2.47233 -5.5221,-5.5221 0,-3.04977 2.47233,-5.52209 5.5221,-5.52209 3.04976,0 5.52209,2.47233 5.52209,5.52209 z"
           id="path6600" />
        <path
           style="color:#000000;font-style:normal;font-variant:normal;font-weight:normal;font-stretch:normal;font-size:medium;line-height:normal;font-family:sans-serif;font-variant-ligatures:normal;font-variant-position:normal;font-variant-caps:normal;font-variant-numeric:normal;font-variant-alternates:normal;font-variant-east-asian:normal;font-feature-settings:normal;font-variation-settings:normal;text-indent:0;text-align:start;text-decoration:none;text-decoration-line:none;text-decoration-style:solid;text-decoration-color:#000000;letter-spacing:normal;word-spacing:normal;text-transform:none;writing-mode:lr-tb;direction:ltr;text-orientation:mixed;dominant-baseline:auto;baseline-shift:baseline;text-anchor:start;white-space:normal;shape-padding:0;shape-margin:0;inline-size:0;clip-rule:nonzero;display:inline;overflow:visible;visibility:visible;isolation:auto;mix-blend-mode:normal;color-interpolation:sRGB;color-interpolation-filters:linearRGB;solid-color:#000000;solid-opacity:1;vector-effect:none;fill:#bfbf18;fill-opacity:1;fill-rule:nonzero;stroke:none;stroke-width:0.770806;stroke-linecap:round;stroke-linejoin:round;stroke-miterlimit:4;stroke-dasharray:none;stroke-dashoffset:0;stroke-opacity:1;paint-order:normal;color-rendering:auto;image-rendering:auto;shape-rendering:auto;text-rendering:auto;enable-background:accumulate;stop-color:#000000;stop-opacity:1"
           d="m 166.27734,114.79883 c -3.25805,0 -5.9082,2.65015 -5.9082,5.9082 0,3.25806 2.65014,5.90625 5.9082,5.90625 3.25806,0 5.90821,-2.64819 5.90821,-5.90625 -1e-5,-3.25805 -2.65015,-5.9082 -5.90821,-5.9082 z m 0,0.77148 c 2.84148,10e-6 5.13672,2.29524 5.13672,5.13672 0,2.84148 -2.29524,5.13672 -5.13672,5.13672 -2.84148,0 -5.13672,-2.29523 -5.13672,-5.13672 10e-6,-2.84148 2.29524,-5.13672 5.13672,-5.13672 z"
           id="path6602" />
      </g>
    </clipPath>
    <clipPath
       clipPathUnits="userSpaceOnUse"
       id="clipPath7352">
      <g
         inkscape:label="Clip"
         id="use7354">
        <g
           id="g7611"
           clip-path="none"
           transform="translate(12.725933,2.1687698)">
          <g
             inkscape:label="Clip"
             id="g7609">
            <g
               id="g7607"
               transform="translate(-13.229169)">
              <g
                 transform="matrix(0.80882047,0,0,0.80882047,41.606336,21.562308)"
                 style="fill:#e68a00;fill-opacity:1;stroke:#e68a00;stroke-width:0.1;stroke-miterlimit:4;stroke-dasharray:none;stroke-opacity:1"
                 id="g7603">
                <path
                   id="path7601"
                   d="m 158.32097,120.57109 c 0.16627,-0.41343 0.15303,-0.86969 -0.0425,-1.27857 -0.19526,-0.40847 -0.55033,-0.72092 -0.99,-0.87742 -0.1001,-0.43147 -0.37543,-0.80687 -0.77499,-1.04855 -0.28693,-0.17356 -0.61832,-0.26533 -0.95823,-0.26533 -0.12778,0 -0.25464,0.0129 -0.37906,0.0383 -0.33184,-0.31224 -0.77974,-0.4884 -1.2543,-0.4884 h -0.013 c -0.47453,0 -0.92248,0.17616 -1.25435,0.4884 -0.12439,-0.0254 -0.25128,-0.0383 -0.379,-0.0383 -0.33996,0 -0.67128,0.0918 -0.95826,0.26533 -0.39962,0.24168 -0.67484,0.61708 -0.77499,1.04855 -0.43962,0.1565 -0.79471,0.46895 -0.99,0.87742 -0.19543,0.40886 -0.20867,0.86514 -0.0424,1.27857 -0.27553,0.35821 -0.38947,0.8023 -0.31411,1.24526 0.0753,0.44279 0.33114,0.83148 0.71199,1.09066 -0.0217,0.44143 0.14122,0.87103 0.46132,1.20212 0.31678,0.32768 0.76115,0.52344 1.22995,0.54446 0.0894,0.1447 0.20022,0.27437 0.32828,0.38604 v 2.16976 c 0,0.19033 0.1543,0.34463 0.34463,0.34463 0.19036,0 0.34464,-0.1543 0.34464,-0.34463 v -1.79841 c 0.0205,0.006 0.0409,0.0118 0.0617,0.0169 0.14929,0.0373 0.30266,0.0562 0.45587,0.0562 0.31377,0 0.51244,-0.077 0.78119,-0.22397 0.26873,0.14693 0.46743,0.22397 0.78122,0.22397 0.15321,0 0.30658,-0.0189 0.45585,-0.0562 0.0208,-0.005 0.0413,-0.0111 0.0617,-0.0169 v 1.79841 c 0,0.19033 0.15427,0.34463 0.34458,0.34463 0.19036,0 0.34466,-0.1543 0.34466,-0.34463 v -2.16976 c 0.12806,-0.11165 0.2389,-0.24134 0.32826,-0.38604 0.46885,-0.021 0.91322,-0.21681 1.23005,-0.54446 0.32002,-0.33109 0.48294,-0.76066 0.46129,-1.20212 0.38088,-0.25918 0.63668,-0.64787 0.71201,-1.09066 0.0753,-0.44294 -0.0386,-0.88702 -0.3141,-1.24526 z m -0.23636,1.15168 c -0.0565,0.33262 -0.27156,0.62121 -0.5899,0.79181 l -0.17735,0.095 0.0341,0.19831 c 0.0567,0.33035 -0.0494,0.66318 -0.29106,0.91317 -0.23109,0.23905 -0.56386,0.37612 -0.91286,0.37612 -0.0222,0 -0.0448,-5.7e-4 -0.067,-0.002 l -0.18595,-0.009 -0.08,0.16814 c -0.14872,0.31227 -0.43614,0.55631 -0.79718,0.6319 -0.52318,0.10963 -1.03229,-0.13654 -1.09818,-0.17001 l -0.004,-0.002 -0.004,0.002 c -0.0659,0.0335 -0.57492,0.27961 -1.09816,0.17006 -0.36101,-0.0757 -0.64843,-0.31964 -0.79713,-0.6319 l -0.08,-0.16816 -0.186,0.009 c -0.0222,0.001 -0.0448,0.002 -0.0671,0.002 -0.34897,0 -0.68167,-0.13709 -0.91276,-0.37612 -0.24173,-0.24999 -0.3478,-0.58284 -0.2911,-0.91317 l 0.034,-0.1983 -0.17732,-0.095 c -0.31834,-0.1706 -0.53334,-0.45919 -0.5899,-0.79181 -0.0561,-0.32952 0.051,-0.66209 0.2937,-0.91236 l 0.14356,-0.14802 -0.0992,-0.18073 c -0.16365,-0.29796 -0.17393,-0.64363 -0.0283,-0.94834 0.14882,-0.31133 0.44006,-0.54094 0.79903,-0.62998 l 0.18875,-0.0468 0.0215,-0.19327 c 0.0373,-0.33511 0.23441,-0.63359 0.54089,-0.81896 0.19983,-0.12084 0.43128,-0.18473 0.66933,-0.18473 0.1314,0 0.26141,0.0193 0.38645,0.0573 l 0.17344,0.0527 0.11871,-0.13696 c 0.22501,-0.2596 0.55721,-0.4119 0.91608,-0.42218 v 1.8e-4 c 0.015,-5.4e-4 0.0301,-9.3e-4 0.0452,-0.001 0.0151,1e-4 0.0301,4.6e-4 0.0452,0.001 l -3e-5,-1.8e-4 c 0.35897,0.0103 0.69109,0.16256 0.91613,0.42218 l 0.11868,0.13696 0.17349,-0.0527 c 0.12502,-0.038 0.25508,-0.0573 0.38648,-0.0573 0.23807,0 0.4695,0.0639 0.66931,0.18473 0.3065,0.18537 0.50361,0.48385 0.54089,0.81896 l 0.0215,0.19327 0.18872,0.0468 c 0.35894,0.089 0.65023,0.31865 0.79905,0.62998 0.14566,0.30471 0.13535,0.65038 -0.0283,0.94834 l -0.0992,0.18073 0.14355,0.14802 c 0.24277,0.25035 0.34978,0.58291 0.29376,0.91244 z"
                   style="color:#000000;font-style:normal;font-variant:normal;font-weight:normal;font-stretch:normal;font-size:medium;line-height:normal;font-family:sans-serif;font-variant-ligatures:normal;font-variant-position:normal;font-variant-caps:normal;font-variant-numeric:normal;font-variant-alternates:normal;font-variant-east-asian:normal;font-feature-settings:normal;font-variation-settings:normal;text-indent:0;text-align:start;text-decoration:none;text-decoration-line:none;text-decoration-style:solid;text-decoration-color:#000000;letter-spacing:normal;word-spacing:normal;text-transform:none;writing-mode:lr-tb;direction:ltr;text-orientation:mixed;dominant-baseline:auto;baseline-shift:baseline;text-anchor:start;white-space:normal;shape-padding:0;shape-margin:0;inline-size:0;clip-rule:nonzero;display:inline;overflow:visible;visibility:visible;isolation:auto;mix-blend-mode:normal;color-interpolation:sRGB;color-interpolation-filters:linearRGB;solid-color:#000000;solid-opacity:1;vector-effect:none;fill:#e68a00;fill-opacity:1;fill-rule:nonzero;stroke:#e68a00;stroke-width:0.1;stroke-linecap:butt;stroke-linejoin:miter;stroke-miterlimit:4;stroke-dasharray:none;stroke-dashoffset:0;stroke-opacity:1;color-rendering:auto;image-rendering:auto;shape-rendering:auto;text-rendering:auto;enable-background:accumulate;stop-color:#000000;stop-opacity:1" />
              </g>
              <path
                 style="fill:#e68a00;fill-opacity:1;stroke-width:0.0209963"
                 d="m 167.71051,119.75791 c 0.0195,-0.0608 0.0286,-0.12413 0.0273,-0.18865 -0.003,-0.15703 -0.0688,-0.30367 -0.18425,-0.41285 -0.0871,-0.0824 -0.1948,-0.1365 -0.31282,-0.15728 -0.10072,-0.20149 -0.3115,-0.33032 -0.54391,-0.33032 -0.005,0 -0.009,2e-5 -0.0134,1.7e-4 -0.0404,8e-4 -0.0805,0.006 -0.11946,0.0141 -0.11426,-0.12407 -0.2764,-0.19466 -0.4492,-0.19466 l -0.009,9e-5 -0.0109,-9e-5 c -0.17251,0 -0.33456,0.0706 -0.44894,0.19466 -0.039,-0.008 -0.079,-0.0133 -0.11944,-0.0141 -0.23822,-0.006 -0.45456,0.12463 -0.55728,0.33016 -0.1181,0.0208 -0.22586,0.0749 -0.31295,0.15729 -0.11542,0.10927 -0.18079,0.25588 -0.18414,0.41285 -0.002,0.0645 0.008,0.12772 0.0273,0.1887 -0.24851,0.12427 -0.47719,0.34293 -0.61731,0.59197 -0.10687,0.18997 -0.10669,0.43107 4.5e-4,0.61433 0.0834,0.14269 0.21777,0.22453 0.36869,0.22453 0.16707,0 0.40956,-0.1004 0.64776,-0.55703 0.009,0.0463 0.0187,0.0917 0.0283,0.13473 0.08,0.35728 0.22848,0.85454 0.48148,1.19459 0.19858,0.26689 0.43284,0.40217 0.69623,0.40217 0.26338,0 0.49766,-0.13528 0.69626,-0.40217 0.25316,-0.34029 0.4016,-0.83744 0.48155,-1.1946 0.01,-0.0435 0.0192,-0.0889 0.0282,-0.13474 0.23833,0.45661 0.48075,0.55701 0.64782,0.55705 0.15086,0 0.28526,-0.0818 0.36874,-0.22447 0.10719,-0.18328 0.10733,-0.42444 4.3e-4,-0.61437 -0.14011,-0.24902 -0.36882,-0.4677 -0.61746,-0.59206 z m -3.2641,0.92577 c -0.086,0.10967 -0.15729,0.14872 -0.19537,0.14872 -0.0273,0 -0.0483,-0.0261 -0.0611,-0.048 -0.0364,-0.0623 -0.0472,-0.17152 0.002,-0.25983 0.16052,-0.28534 0.41734,-0.44422 0.57045,-0.49092 -0.0984,0.2891 -0.20471,0.50753 -0.31652,0.64998 z m 2.87654,-0.95018 c 0,0 -0.0822,0.11808 -0.29739,0.0879 0.0459,0.19203 -0.14355,1.53691 -0.57776,2.00874 -0.10933,0.11896 -0.22153,0.17679 -0.34295,0.17679 -0.12127,0 -0.23345,-0.0578 -0.34299,-0.17679 -0.43484,-0.47254 -0.61035,-1.98882 -0.61035,-1.98882 0,0 -0.32326,-0.006 -0.32326,-0.26447 0,-0.12732 0.11454,-0.23081 0.24931,-0.23081 l 0.15835,0.006 0.0336,-0.14269 c 0.0252,-0.10669 0.12758,-0.18406 0.24354,-0.18406 l 0.006,8e-5 c 0.0399,8.1e-4 0.078,0.0104 0.11315,0.0282 l 0.15756,0.0805 0.0815,-0.15703 c 0.0424,-0.0815 0.12838,-0.13216 0.2245,-0.13216 l 0.009,1.5e-4 0.01,-1.7e-4 c 0.096,0 0.18196,0.0506 0.22422,0.13218 l 0.0816,0.15703 0.15743,-0.0804 c 0.0354,-0.0179 0.0734,-0.0275 0.11338,-0.0283 l 0.006,-9e-5 c 0.11601,0 0.21839,0.0774 0.24342,0.18404 l 0.0336,0.14269 0.14695,-0.006 0.0115,-3.2e-4 c 0.13472,0 0.24659,0.10353 0.24934,0.23079 8.1e-4,0.0572 -0.0197,0.11283 -0.0586,0.15667 z m 0.69685,1.05093 c -0.0128,0.0219 -0.0338,0.048 -0.0611,0.048 -0.0381,0 -0.10942,-0.0391 -0.19541,-0.14878 -0.11169,-0.14238 -0.21809,-0.3608 -0.3165,-0.6499 0.15315,0.0468 0.4099,0.20557 0.57048,0.49096 0.0497,0.0882 0.0389,0.19747 0.002,0.25973 z"
                 id="path7605" />
            </g>
          </g>
        </g>
        <g
           inkscape:label="Clip"
           id="use7613"
           transform="translate(12.725933,2.1687698)">
          <g
             id="g7635"
             transform="translate(-13.229169)">
            <g
               transform="matrix(0.80882047,0,0,0.80882047,41.606336,21.562308)"
               style="fill:#e68a00;fill-opacity:1;stroke:#e68a00;stroke-width:0.1;stroke-miterlimit:4;stroke-dasharray:none;stroke-opacity:1"
               id="g7631">
              <path
                 id="path7629"
                 d="m 158.32097,120.57109 c 0.16627,-0.41343 0.15303,-0.86969 -0.0425,-1.27857 -0.19526,-0.40847 -0.55033,-0.72092 -0.99,-0.87742 -0.1001,-0.43147 -0.37543,-0.80687 -0.77499,-1.04855 -0.28693,-0.17356 -0.61832,-0.26533 -0.95823,-0.26533 -0.12778,0 -0.25464,0.0129 -0.37906,0.0383 -0.33184,-0.31224 -0.77974,-0.4884 -1.2543,-0.4884 h -0.013 c -0.47453,0 -0.92248,0.17616 -1.25435,0.4884 -0.12439,-0.0254 -0.25128,-0.0383 -0.379,-0.0383 -0.33996,0 -0.67128,0.0918 -0.95826,0.26533 -0.39962,0.24168 -0.67484,0.61708 -0.77499,1.04855 -0.43962,0.1565 -0.79471,0.46895 -0.99,0.87742 -0.19543,0.40886 -0.20867,0.86514 -0.0424,1.27857 -0.27553,0.35821 -0.38947,0.8023 -0.31411,1.24526 0.0753,0.44279 0.33114,0.83148 0.71199,1.09066 -0.0217,0.44143 0.14122,0.87103 0.46132,1.20212 0.31678,0.32768 0.76115,0.52344 1.22995,0.54446 0.0894,0.1447 0.20022,0.27437 0.32828,0.38604 v 2.16976 c 0,0.19033 0.1543,0.34463 0.34463,0.34463 0.19036,0 0.34464,-0.1543 0.34464,-0.34463 v -1.79841 c 0.0205,0.006 0.0409,0.0118 0.0617,0.0169 0.14929,0.0373 0.30266,0.0562 0.45587,0.0562 0.31377,0 0.51244,-0.077 0.78119,-0.22397 0.26873,0.14693 0.46743,0.22397 0.78122,0.22397 0.15321,0 0.30658,-0.0189 0.45585,-0.0562 0.0208,-0.005 0.0413,-0.0111 0.0617,-0.0169 v 1.79841 c 0,0.19033 0.15427,0.34463 0.34458,0.34463 0.19036,0 0.34466,-0.1543 0.34466,-0.34463 v -2.16976 c 0.12806,-0.11165 0.2389,-0.24134 0.32826,-0.38604 0.46885,-0.021 0.91322,-0.21681 1.23005,-0.54446 0.32002,-0.33109 0.48294,-0.76066 0.46129,-1.20212 0.38088,-0.25918 0.63668,-0.64787 0.71201,-1.09066 0.0753,-0.44294 -0.0386,-0.88702 -0.3141,-1.24526 z m -0.23636,1.15168 c -0.0565,0.33262 -0.27156,0.62121 -0.5899,0.79181 l -0.17735,0.095 0.0341,0.19831 c 0.0567,0.33035 -0.0494,0.66318 -0.29106,0.91317 -0.23109,0.23905 -0.56386,0.37612 -0.91286,0.37612 -0.0222,0 -0.0448,-5.7e-4 -0.067,-0.002 l -0.18595,-0.009 -0.08,0.16814 c -0.14872,0.31227 -0.43614,0.55631 -0.79718,0.6319 -0.52318,0.10963 -1.03229,-0.13654 -1.09818,-0.17001 l -0.004,-0.002 -0.004,0.002 c -0.0659,0.0335 -0.57492,0.27961 -1.09816,0.17006 -0.36101,-0.0757 -0.64843,-0.31964 -0.79713,-0.6319 l -0.08,-0.16816 -0.186,0.009 c -0.0222,0.001 -0.0448,0.002 -0.0671,0.002 -0.34897,0 -0.68167,-0.13709 -0.91276,-0.37612 -0.24173,-0.24999 -0.3478,-0.58284 -0.2911,-0.91317 l 0.034,-0.1983 -0.17732,-0.095 c -0.31834,-0.1706 -0.53334,-0.45919 -0.5899,-0.79181 -0.0561,-0.32952 0.051,-0.66209 0.2937,-0.91236 l 0.14356,-0.14802 -0.0992,-0.18073 c -0.16365,-0.29796 -0.17393,-0.64363 -0.0283,-0.94834 0.14882,-0.31133 0.44006,-0.54094 0.79903,-0.62998 l 0.18875,-0.0468 0.0215,-0.19327 c 0.0373,-0.33511 0.23441,-0.63359 0.54089,-0.81896 0.19983,-0.12084 0.43128,-0.18473 0.66933,-0.18473 0.1314,0 0.26141,0.0193 0.38645,0.0573 l 0.17344,0.0527 0.11871,-0.13696 c 0.22501,-0.2596 0.55721,-0.4119 0.91608,-0.42218 v 1.8e-4 c 0.015,-5.4e-4 0.0301,-9.3e-4 0.0452,-0.001 0.0151,1e-4 0.0301,4.6e-4 0.0452,0.001 l -3e-5,-1.8e-4 c 0.35897,0.0103 0.69109,0.16256 0.91613,0.42218 l 0.11868,0.13696 0.17349,-0.0527 c 0.12502,-0.038 0.25508,-0.0573 0.38648,-0.0573 0.23807,0 0.4695,0.0639 0.66931,0.18473 0.3065,0.18537 0.50361,0.48385 0.54089,0.81896 l 0.0215,0.19327 0.18872,0.0468 c 0.35894,0.089 0.65023,0.31865 0.79905,0.62998 0.14566,0.30471 0.13535,0.65038 -0.0283,0.94834 l -0.0992,0.18073 0.14355,0.14802 c 0.24277,0.25035 0.34978,0.58291 0.29376,0.91244 z"
                 style="color:#000000;font-style:normal;font-variant:normal;font-weight:normal;font-stretch:normal;font-size:medium;line-height:normal;font-family:sans-serif;font-variant-ligatures:normal;font-variant-position:normal;font-variant-caps:normal;font-variant-numeric:normal;font-variant-alternates:normal;font-variant-east-asian:normal;font-feature-settings:normal;font-variation-settings:normal;text-indent:0;text-align:start;text-decoration:none;text-decoration-line:none;text-decoration-style:solid;text-decoration-color:#000000;letter-spacing:normal;word-spacing:normal;text-transform:none;writing-mode:lr-tb;direction:ltr;text-orientation:mixed;dominant-baseline:auto;baseline-shift:baseline;text-anchor:start;white-space:normal;shape-padding:0;shape-margin:0;inline-size:0;clip-rule:nonzero;display:inline;overflow:visible;visibility:visible;isolation:auto;mix-blend-mode:normal;color-interpolation:sRGB;color-interpolation-filters:linearRGB;solid-color:#000000;solid-opacity:1;vector-effect:none;fill:#e68a00;fill-opacity:1;fill-rule:nonzero;stroke:#e68a00;stroke-width:0.1;stroke-linecap:butt;stroke-linejoin:miter;stroke-miterlimit:4;stroke-dasharray:none;stroke-dashoffset:0;stroke-opacity:1;color-rendering:auto;image-rendering:auto;shape-rendering:auto;text-rendering:auto;enable-background:accumulate;stop-color:#000000;stop-opacity:1" />
            </g>
            <path
               style="fill:#e68a00;fill-opacity:1;stroke-width:0.0209963"
               d="m 167.71051,119.75791 c 0.0195,-0.0608 0.0286,-0.12413 0.0273,-0.18865 -0.003,-0.15703 -0.0688,-0.30367 -0.18425,-0.41285 -0.0871,-0.0824 -0.1948,-0.1365 -0.31282,-0.15728 -0.10072,-0.20149 -0.3115,-0.33032 -0.54391,-0.33032 -0.005,0 -0.009,2e-5 -0.0134,1.7e-4 -0.0404,8e-4 -0.0805,0.006 -0.11946,0.0141 -0.11426,-0.12407 -0.2764,-0.19466 -0.4492,-0.19466 l -0.009,9e-5 -0.0109,-9e-5 c -0.17251,0 -0.33456,0.0706 -0.44894,0.19466 -0.039,-0.008 -0.079,-0.0133 -0.11944,-0.0141 -0.23822,-0.006 -0.45456,0.12463 -0.55728,0.33016 -0.1181,0.0208 -0.22586,0.0749 -0.31295,0.15729 -0.11542,0.10927 -0.18079,0.25588 -0.18414,0.41285 -0.002,0.0645 0.008,0.12772 0.0273,0.1887 -0.24851,0.12427 -0.47719,0.34293 -0.61731,0.59197 -0.10687,0.18997 -0.10669,0.43107 4.5e-4,0.61433 0.0834,0.14269 0.21777,0.22453 0.36869,0.22453 0.16707,0 0.40956,-0.1004 0.64776,-0.55703 0.009,0.0463 0.0187,0.0917 0.0283,0.13473 0.08,0.35728 0.22848,0.85454 0.48148,1.19459 0.19858,0.26689 0.43284,0.40217 0.69623,0.40217 0.26338,0 0.49766,-0.13528 0.69626,-0.40217 0.25316,-0.34029 0.4016,-0.83744 0.48155,-1.1946 0.01,-0.0435 0.0192,-0.0889 0.0282,-0.13474 0.23833,0.45661 0.48075,0.55701 0.64782,0.55705 0.15086,0 0.28526,-0.0818 0.36874,-0.22447 0.10719,-0.18328 0.10733,-0.42444 4.3e-4,-0.61437 -0.14011,-0.24902 -0.36882,-0.4677 -0.61746,-0.59206 z m -3.2641,0.92577 c -0.086,0.10967 -0.15729,0.14872 -0.19537,0.14872 -0.0273,0 -0.0483,-0.0261 -0.0611,-0.048 -0.0364,-0.0623 -0.0472,-0.17152 0.002,-0.25983 0.16052,-0.28534 0.41734,-0.44422 0.57045,-0.49092 -0.0984,0.2891 -0.20471,0.50753 -0.31652,0.64998 z m 2.87654,-0.95018 c 0,0 -0.0822,0.11808 -0.29739,0.0879 0.0459,0.19203 -0.14355,1.53691 -0.57776,2.00874 -0.10933,0.11896 -0.22153,0.17679 -0.34295,0.17679 -0.12127,0 -0.23345,-0.0578 -0.34299,-0.17679 -0.43484,-0.47254 -0.61035,-1.98882 -0.61035,-1.98882 0,0 -0.32326,-0.006 -0.32326,-0.26447 0,-0.12732 0.11454,-0.23081 0.24931,-0.23081 l 0.15835,0.006 0.0336,-0.14269 c 0.0252,-0.10669 0.12758,-0.18406 0.24354,-0.18406 l 0.006,8e-5 c 0.0399,8.1e-4 0.078,0.0104 0.11315,0.0282 l 0.15756,0.0805 0.0815,-0.15703 c 0.0424,-0.0815 0.12838,-0.13216 0.2245,-0.13216 l 0.009,1.5e-4 0.01,-1.7e-4 c 0.096,0 0.18196,0.0506 0.22422,0.13218 l 0.0816,0.15703 0.15743,-0.0804 c 0.0354,-0.0179 0.0734,-0.0275 0.11338,-0.0283 l 0.006,-9e-5 c 0.11601,0 0.21839,0.0774 0.24342,0.18404 l 0.0336,0.14269 0.14695,-0.006 0.0115,-3.2e-4 c 0.13472,0 0.24659,0.10353 0.24934,0.23079 8.1e-4,0.0572 -0.0197,0.11283 -0.0586,0.15667 z m 0.69685,1.05093 c -0.0128,0.0219 -0.0338,0.048 -0.0611,0.048 -0.0381,0 -0.10942,-0.0391 -0.19541,-0.14878 -0.11169,-0.14238 -0.21809,-0.3608 -0.3165,-0.6499 0.15315,0.0468 0.4099,0.20557 0.57048,0.49096 0.0497,0.0882 0.0389,0.19747 0.002,0.25973 z"
               id="path7633" />
          </g>
        </g>
      </g>
    </clipPath>
  </defs>
  <sodipodi:namedview
     id="base"
     pagecolor="#ffffff"
     bordercolor="#666666"
     borderopacity="1.0"
     inkscape:pageopacity="0.0"
     inkscape:pageshadow="2"
     inkscape:zoom="5.544662"
     inkscape:cx="42.128144"
     inkscape:cy="28.448091"
     inkscape:document-units="mm"
     inkscape:current-layer="layer1"
     inkscape:document-rotation="0"
     showgrid="true"
     inkscape:window-width="1920"
     inkscape:window-height="1147"
     inkscape:window-x="1435"
     inkscape:window-y="25"
     inkscape:window-maximized="0"
     inkscape:lockguides="true"
     fit-margin-top="0.5"
     fit-margin-right="0.5"
     fit-margin-bottom="0.5"
     fit-margin-left="0.5">
    <inkscape:grid
       type="xygrid"
       id="grid837"
       originx="-160.17159"
       originy="-114.55999" />
  </sodipodi:namedview>
  <metadata
     id="metadata5">
    <rdf:RDF>
      <cc:Work
         rdf:about="">
        <dc:format>image/svg+xml</dc:format>
        <dc:type
           rdf:resource="http://purl.org/dc/dcmitype/StillImage" />
        <dc:title></dc:title>
      </cc:Work>
    </rdf:RDF>
  </metadata>
  <g
     inkscape:label="Layer 1"
     inkscape:groupmode="layer"
     id="layer1"
     transform="translate(-160.17157,-114.55997)">
    <path
       fill="none"
       stroke="#000000"
       stroke-width="0.815132"
       stroke-linecap="round"
       d="m 166.73194,121.64858 a 3.4643153,3.4643153 0 1 0 -0.0453,0.0453 l 3.84925,3.84924 m -2.06048,-2.64919 2.49068,2.49068 -0.58871,0.58871 -2.49068,-2.49068"
       id="path1085"
       style="fill:none;fill-opacity:1;stroke:#bfbf00;stroke-opacity:1" />
  </g>
</svg>
